<?xml version="1.0" encoding="utf-8"?>
<!-- Generator: Adobe Illustrator 16.0.0, SVG Export Plug-In . SVG Version: 6.00 Build 0)  -->
<!DOCTYPE svg PUBLIC "-//W3C//DTD SVG 1.1//EN" "http://www.w3.org/Graphics/SVG/1.1/DTD/svg11.dtd">
<svg version="1.1" id="Layer_1" xmlns="http://www.w3.org/2000/svg" xmlns:xlink="http://www.w3.org/1999/xlink" x="0px" y="0px"
	 width="125.431px" height="78.393px" viewBox="0 0 125.431 78.393" enable-background="new 0 0 125.431 78.393"
	 xml:space="preserve">
<g>
	<path fill="#F4F4F4" d="M125.431,74.213c0,2.31-1.873,4.18-4.181,4.18H4.181c-2.308,0-4.181-1.87-4.181-4.18V4.182
		C0,1.872,1.874,0,4.181,0H121.25c2.308,0,4.181,1.872,4.181,4.182V74.213z"/>
	<g>
		<polygon fill-rule="evenodd" clip-rule="evenodd" fill="#FBB231" points="77.768,61.7 78.928,61.669 80.075,61.586 81.199,61.443 
			82.314,61.245 83.399,60.995 84.471,60.691 85.518,60.333 86.543,59.931 87.544,59.476 88.516,58.984 89.457,58.436 
			90.376,57.852 91.257,57.222 92.105,56.554 92.926,55.848 93.709,55.097 94.459,54.314 95.166,53.494 95.834,52.645 
			96.464,51.764 97.049,50.846 97.594,49.904 98.088,48.932 98.543,47.931 98.945,46.906 99.301,45.857 99.607,44.789 
			99.855,43.703 100.053,42.587 100.197,41.463 100.282,40.317 100.311,39.156 100.282,38.002 100.197,36.863 100.053,35.74 
			99.855,34.639 99.607,33.554 99.301,32.491 98.945,31.444 98.543,30.426 98.088,29.433 97.594,28.46 97.049,27.527 96.464,26.609 
			95.834,25.728 95.166,24.885 94.459,24.066 93.709,23.284 92.926,22.54 92.105,21.834 91.257,21.166 90.376,20.536 89.457,19.951 
			88.516,19.413 87.544,18.92 86.543,18.463 85.518,18.061 84.471,17.705 83.399,17.401 82.314,17.15 81.199,16.954 80.075,16.809 
			78.928,16.725 77.768,16.694 76.613,16.725 75.467,16.809 74.345,16.954 73.235,17.15 72.15,17.401 71.081,17.705 70.04,18.061 
			69.015,18.463 68.02,18.92 67.057,19.413 66.115,19.951 65.205,20.536 64.325,21.166 63.474,21.834 62.662,22.54 61.879,23.284 
			61.136,24.066 60.43,24.885 59.762,25.728 59.141,26.609 58.556,27.527 58.016,28.46 57.516,29.433 57.067,30.426 56.665,31.444 
			56.316,32.491 56.012,33.554 55.762,34.639 55.564,35.74 55.421,36.863 55.336,38.002 55.306,39.156 55.336,40.317 55.421,41.463 
			55.564,42.587 55.762,43.703 56.012,44.789 56.316,45.857 56.665,46.906 57.067,47.931 57.516,48.932 58.016,49.904 
			58.556,50.846 59.141,51.764 59.762,52.645 60.43,53.494 61.136,54.314 61.879,55.097 62.662,55.848 63.474,56.554 64.325,57.222 
			65.205,57.852 66.115,58.436 67.057,58.984 68.02,59.476 69.015,59.931 70.04,60.333 71.081,60.691 72.15,60.995 73.235,61.245 
			74.345,61.443 75.467,61.586 76.613,61.669 77.768,61.7 77.768,61.7 		"/>
		<polygon fill-rule="evenodd" clip-rule="evenodd" fill="#EC1C2E" points="47.663,61.7 48.815,61.669 49.962,61.586 51.086,61.443 
			52.194,61.245 53.28,60.995 54.349,60.691 55.39,60.333 56.415,59.931 57.409,59.476 58.373,58.984 59.314,58.436 60.224,57.852 
			61.106,57.222 61.956,56.554 62.768,55.848 63.55,55.097 64.294,54.314 65,53.494 65.668,52.645 66.289,51.764 66.875,50.846 
			67.414,49.904 67.914,48.932 68.361,47.931 68.766,46.906 69.113,45.857 69.417,44.789 69.668,43.703 69.865,42.587 70.01,41.463 
			70.092,40.317 70.123,39.156 70.092,38.002 70.01,36.863 69.865,35.74 69.668,34.639 69.417,33.554 69.113,32.491 68.766,31.444 
			68.361,30.426 67.914,29.433 67.414,28.46 66.875,27.527 66.289,26.609 65.668,25.728 65,24.885 64.294,24.066 63.55,23.284 
			62.768,22.54 61.956,21.834 61.106,21.166 60.224,20.536 59.314,19.951 58.373,19.413 57.409,18.92 56.415,18.463 55.39,18.061 
			54.349,17.705 53.28,17.401 52.194,17.15 51.086,16.954 49.962,16.809 48.815,16.725 47.663,16.694 46.5,16.725 45.355,16.809 
			44.231,16.954 43.115,17.15 42.029,17.401 40.959,17.705 39.912,18.061 38.888,18.463 37.886,18.92 36.914,19.413 35.973,19.951 
			35.054,20.536 34.173,21.166 33.323,21.834 32.503,22.54 31.723,23.284 30.971,24.066 30.265,24.885 29.597,25.728 28.966,26.609 
			28.382,27.527 27.835,28.46 27.342,29.433 26.886,30.426 26.484,31.444 26.128,32.491 25.824,33.554 25.574,34.639 25.376,35.74 
			25.231,36.863 25.148,38.002 25.118,39.156 25.148,40.317 25.231,41.463 25.376,42.587 25.574,43.703 25.824,44.789 
			26.128,45.857 26.484,46.906 26.886,47.931 27.342,48.932 27.835,49.904 28.382,50.846 28.966,51.764 29.597,52.645 
			30.265,53.494 30.971,54.314 31.723,55.097 32.503,55.848 33.323,56.554 34.173,57.222 35.054,57.852 35.973,58.436 
			36.914,58.984 37.886,59.476 38.888,59.931 39.912,60.333 40.959,60.691 42.029,60.995 43.115,61.245 44.231,61.443 
			45.355,61.586 46.5,61.669 47.663,61.7 47.663,61.7 		"/>
		<polygon fill-rule="evenodd" clip-rule="evenodd" fill="#FBB231" points="60.082,25.326 72.037,25.326 72.037,24.103 
			61.114,24.103 60.082,25.326 60.082,25.326 		"/>
		<polygon fill-rule="evenodd" clip-rule="evenodd" fill="#FBB231" points="58.29,28.042 72.037,28.042 72.037,26.82 59.011,26.82 
			58.29,28.042 58.29,28.042 		"/>
		<polygon fill-rule="evenodd" clip-rule="evenodd" fill="#FBB231" points="56.954,30.753 72.037,30.753 72.037,29.53 57.485,29.53 
			56.954,30.753 56.954,30.753 		"/>
		<polygon fill-rule="evenodd" clip-rule="evenodd" fill="#FBB231" points="56.035,33.47 72.037,33.47 72.037,32.249 56.415,32.249 
			56.035,33.47 56.035,33.47 		"/>
		<polygon fill-rule="evenodd" clip-rule="evenodd" fill="#FBB231" points="56.567,46.603 72.074,46.603 72.074,45.38 56.187,45.38 
			56.567,46.603 56.567,46.603 		"/>
		<polygon fill-rule="evenodd" clip-rule="evenodd" fill="#FBB231" points="57.712,49.32 72.074,49.32 72.074,48.097 57.143,48.097 
			57.712,49.32 57.712,49.32 		"/>
		<polygon fill-rule="evenodd" clip-rule="evenodd" fill="#FBB231" points="59.321,52.03 72.074,52.03 72.074,50.808 58.556,50.808 
			59.321,52.03 59.321,52.03 		"/>
		<polygon fill-rule="evenodd" clip-rule="evenodd" fill="#FBB231" points="61.539,54.748 72.074,54.748 72.074,53.517 
			60.469,53.517 61.539,54.748 61.539,54.748 		"/>
		<polygon fill-rule="evenodd" clip-rule="evenodd" fill="#FBB231" points="55.497,36.18 72.037,36.18 72.037,34.958 55.731,34.958 
			55.497,36.18 55.497,36.18 		"/>
		<polygon fill-rule="evenodd" clip-rule="evenodd" fill="#FBB231" points="65.576,43.893 71.885,43.893 71.885,42.669 
			65.805,42.669 65.576,43.893 65.576,43.893 		"/>
		<polygon fill-rule="evenodd" clip-rule="evenodd" fill="#FBB231" points="66.078,41.182 71.885,41.182 71.885,39.953 
			66.306,39.953 66.078,41.182 66.078,41.182 		"/>
		<polygon fill-rule="evenodd" clip-rule="evenodd" fill="#FBB231" points="55.079,39.953 56.719,39.953 56.719,41.182 
			55.155,41.182 55.079,39.953 55.079,39.953 		"/>
		<polygon fill-rule="evenodd" clip-rule="evenodd" fill="#FFFFFF" points="52.019,38.472 51.913,38.464 51.807,38.45 
			51.708,38.435 51.61,38.419 51.518,38.405 51.42,38.389 51.322,38.375 51.214,38.358 51.109,38.344 50.987,38.336 50.851,38.328 
			50.707,38.32 50.547,38.32 50.373,38.328 50.175,38.344 49.955,38.358 49.804,38.382 49.659,38.405 49.529,38.45 49.416,38.495 
			49.309,38.548 49.212,38.609 49.135,38.686 49.065,38.753 49.021,38.837 48.983,38.92 48.968,39.011 48.968,39.103 48.99,39.202 
			49.021,39.3 49.081,39.399 49.158,39.498 49.309,39.641 49.493,39.755 49.704,39.854 49.932,39.937 50.175,40.014 50.425,40.097 
			50.676,40.189 50.918,40.287 51.146,40.416 51.359,40.575 51.548,40.765 51.708,41 51.83,41.289 51.906,41.63 51.936,42.041 
			51.906,42.519 51.853,42.875 51.762,43.187 51.64,43.475 51.488,43.725 51.314,43.947 51.116,44.135 50.903,44.302 50.669,44.447 
			50.425,44.56 50.175,44.659 49.917,44.735 49.651,44.795 49.393,44.842 49.144,44.865 48.893,44.88 48.657,44.886 48.329,44.886 
			48.026,44.88 47.761,44.88 47.511,44.873 47.283,44.865 47.078,44.849 46.896,44.833 46.722,44.811 46.562,44.795 46.418,44.765 
			46.273,44.742 46.145,44.705 46.015,44.674 45.895,44.628 45.772,44.583 45.643,44.538 45.984,42.861 46.053,42.875 
			46.136,42.898 46.243,42.927 46.373,42.959 46.508,42.99 46.661,43.019 46.828,43.057 47.009,43.087 47.199,43.118 47.397,43.148 
			47.602,43.171 47.814,43.194 48.033,43.201 48.256,43.208 48.474,43.208 48.694,43.201 48.915,43.156 49.09,43.095 49.226,43.012 
			49.333,42.906 49.408,42.799 49.469,42.677 49.508,42.556 49.537,42.443 49.554,42.222 49.485,42.033 49.354,41.88 49.166,41.751 
			48.938,41.638 48.672,41.524 48.376,41.417 48.08,41.296 47.776,41.16 47.488,41 47.223,40.803 46.979,40.568 46.79,40.279 
			46.653,39.937 46.584,39.528 46.592,39.042 46.63,38.746 46.684,38.464 46.76,38.207 46.85,37.964 46.971,37.737 47.108,37.539 
			47.268,37.349 47.458,37.183 47.679,37.039 47.921,36.917 48.193,36.803 48.497,36.72 48.84,36.65 49.212,36.598 49.621,36.567 
			50.07,36.559 50.349,36.559 50.607,36.567 50.844,36.576 51.056,36.583 51.246,36.598 51.42,36.613 51.571,36.628 51.708,36.644 
			51.837,36.658 51.944,36.681 52.042,36.697 52.134,36.711 52.21,36.726 52.278,36.735 52.346,36.75 52.407,36.758 52.019,38.472 
			52.019,38.472 		"/>
		<polyline fill="none" stroke="#FFFFFF" stroke-width="0.216" stroke-miterlimit="2.6131" points="52.019,38.472 52.019,38.472 
			51.913,38.464 51.807,38.45 51.708,38.435 51.61,38.419 51.518,38.405 51.42,38.389 51.322,38.375 51.214,38.358 51.109,38.344 
			50.987,38.336 50.851,38.328 50.707,38.32 50.547,38.32 50.373,38.328 50.175,38.344 49.955,38.358 49.955,38.358 49.804,38.382 
			49.659,38.405 49.529,38.45 49.416,38.495 49.309,38.548 49.212,38.609 49.135,38.686 49.065,38.753 49.021,38.837 48.983,38.92 
			48.968,39.011 48.968,39.103 48.99,39.202 49.021,39.3 49.081,39.399 49.158,39.498 49.158,39.498 49.309,39.641 49.493,39.755 
			49.704,39.854 49.932,39.937 50.175,40.014 50.425,40.097 50.676,40.189 50.918,40.287 51.146,40.416 51.359,40.575 
			51.548,40.765 51.708,41 51.83,41.289 51.906,41.63 51.936,42.041 51.906,42.519 51.906,42.519 51.853,42.875 51.762,43.187 
			51.64,43.475 51.488,43.725 51.314,43.947 51.116,44.135 50.903,44.302 50.669,44.447 50.425,44.56 50.175,44.659 49.917,44.735 
			49.651,44.795 49.393,44.842 49.144,44.865 48.893,44.88 48.657,44.886 48.657,44.886 48.329,44.886 48.026,44.88 47.761,44.88 
			47.511,44.873 47.283,44.865 47.078,44.849 46.896,44.833 46.722,44.811 46.562,44.795 46.418,44.765 46.273,44.742 
			46.145,44.705 46.015,44.674 45.895,44.628 45.772,44.583 45.643,44.538 45.984,42.861 45.984,42.861 46.053,42.875 
			46.136,42.898 46.243,42.927 46.373,42.959 46.508,42.99 46.661,43.019 46.828,43.057 47.009,43.087 47.199,43.118 47.397,43.148 
			47.602,43.171 47.814,43.194 48.033,43.201 48.256,43.208 48.474,43.208 48.694,43.201 48.694,43.201 48.915,43.156 49.09,43.095 
			49.226,43.012 49.333,42.906 49.408,42.799 49.469,42.677 49.508,42.556 49.537,42.443 49.537,42.443 49.554,42.222 
			49.485,42.033 49.354,41.88 49.166,41.751 48.938,41.638 48.672,41.524 48.376,41.417 48.08,41.296 47.776,41.16 47.488,41 
			47.223,40.803 46.979,40.568 46.79,40.279 46.653,39.937 46.584,39.528 46.592,39.042 46.592,39.042 46.63,38.746 46.684,38.464 
			46.76,38.207 46.85,37.964 46.971,37.737 47.108,37.539 47.268,37.349 47.458,37.183 47.679,37.039 47.921,36.917 48.193,36.803 
			48.497,36.72 48.84,36.65 49.212,36.598 49.621,36.567 50.07,36.559 50.07,36.559 50.349,36.559 50.607,36.567 50.844,36.576 
			51.056,36.583 51.246,36.598 51.42,36.613 51.571,36.628 51.708,36.644 51.837,36.658 51.944,36.681 52.042,36.697 52.134,36.711 
			52.21,36.726 52.278,36.735 52.346,36.75 52.407,36.758 52.019,38.472 		"/>
		<polygon fill-rule="evenodd" clip-rule="evenodd" fill="#FFFFFF" points="53.818,34.883 55.922,34.883 55.61,36.72 56.878,36.72 
			56.604,38.435 55.268,38.397 54.54,42.632 54.532,42.785 54.569,42.914 54.646,43.012 54.745,43.095 54.882,43.148 55.033,43.194 
			55.2,43.224 55.382,43.24 55.549,43.232 55.7,43.217 55.838,43.194 55.959,43.164 56.059,43.133 56.126,43.111 56.172,43.095 
			56.187,43.087 55.922,44.5 55.868,44.538 55.815,44.568 55.762,44.598 55.709,44.628 55.656,44.651 55.595,44.674 55.527,44.697 
			55.458,44.72 55.382,44.742 55.306,44.757 55.215,44.773 55.125,44.789 55.026,44.804 54.912,44.819 54.79,44.833 54.66,44.849 
			54.083,44.849 53.779,44.826 53.515,44.795 53.272,44.75 53.067,44.697 52.892,44.628 52.748,44.554 52.619,44.462 52.521,44.363 
			52.444,44.257 52.39,44.128 52.354,43.998 52.33,43.855 52.323,43.695 52.323,43.529 52.346,43.354 52.369,43.164 53.818,34.883 
			53.818,34.883 		"/>
		<polyline fill="none" stroke="#FFFFFF" stroke-width="0.216" stroke-miterlimit="2.6131" points="53.818,34.883 55.922,34.883 
			55.61,36.72 56.878,36.72 56.604,38.435 55.268,38.397 54.54,42.632 54.54,42.632 54.532,42.785 54.569,42.914 54.646,43.012 
			54.745,43.095 54.882,43.148 55.033,43.194 55.2,43.224 55.382,43.24 55.382,43.24 55.549,43.232 55.7,43.217 55.838,43.194 
			55.959,43.164 56.059,43.133 56.126,43.111 56.172,43.095 56.187,43.087 55.922,44.5 55.922,44.5 55.868,44.538 55.815,44.568 
			55.762,44.598 55.709,44.628 55.656,44.651 55.595,44.674 55.527,44.697 55.458,44.72 55.382,44.742 55.306,44.757 55.215,44.773 
			55.125,44.789 55.026,44.804 54.912,44.819 54.79,44.833 54.66,44.849 54.083,44.849 54.083,44.849 53.779,44.826 53.515,44.795 
			53.272,44.75 53.067,44.697 52.892,44.628 52.748,44.554 52.619,44.462 52.521,44.363 52.444,44.257 52.39,44.128 52.354,43.998 
			52.33,43.855 52.323,43.695 52.323,43.529 52.346,43.354 52.369,43.164 53.818,34.883 		"/>
		<polyline fill="none" stroke="#FFFFFF" stroke-width="0.216" stroke-miterlimit="2.6131" points="58.556,41.296 58.556,41.296 
			58.532,41.425 58.525,41.561 58.54,41.706 58.57,41.85 58.624,41.995 58.686,42.132 58.768,42.276 58.858,42.404 58.965,42.535 
			59.078,42.649 59.201,42.761 59.336,42.852 59.474,42.937 59.625,43.003 59.777,43.057 59.929,43.087 59.929,43.087 
			60.126,43.118 60.316,43.141 60.514,43.164 60.711,43.179 60.908,43.187 61.114,43.187 61.311,43.179 61.516,43.164 61.72,43.133 
			61.926,43.095 62.138,43.05 62.343,42.982 62.557,42.898 62.775,42.806 62.988,42.686 63.208,42.556 62.905,44.424 62.905,44.424 
			62.782,44.484 62.662,44.546 62.54,44.59 62.427,44.637 62.313,44.674 62.19,44.712 62.069,44.742 61.94,44.765 61.804,44.789 
			61.652,44.804 61.493,44.819 61.318,44.833 61.121,44.842 60.917,44.842 60.68,44.849 60.43,44.849 60.43,44.849 60.058,44.842 
			59.68,44.804 59.299,44.75 58.919,44.659 58.548,44.546 58.192,44.4 57.849,44.211 57.53,43.991 57.234,43.733 56.977,43.421 
			56.757,43.072 56.573,42.669 56.445,42.222 56.362,41.712 56.339,41.152 56.377,40.53 56.377,40.53 56.408,40.287 56.452,40.005 
			56.514,39.71 56.597,39.39 56.711,39.065 56.847,38.738 57.021,38.405 57.234,38.086 57.477,37.782 57.772,37.494 58.107,37.236 
			58.487,37.008 58.926,36.818 59.421,36.681 59.966,36.591 60.582,36.559 60.582,36.559 60.878,36.567 61.189,36.598 61.501,36.65 
			61.812,36.726 62.115,36.841 62.412,36.978 62.686,37.16 62.936,37.372 63.163,37.63 63.353,37.935 63.504,38.283 63.611,38.686 
			63.672,39.14 63.68,39.656 63.626,40.233 63.512,40.872 63.474,41.334 57.941,41.334 58.29,39.838 61.614,39.838 61.614,39.838 
			61.63,39.649 61.621,39.467 61.605,39.3 61.577,39.149 61.523,39.004 61.471,38.874 61.394,38.761 61.318,38.655 61.229,38.564 
			61.128,38.488 61.015,38.419 60.9,38.358 60.779,38.314 60.658,38.283 60.529,38.26 60.392,38.245 60.392,38.245 60.248,38.252 
			60.111,38.275 59.982,38.307 59.854,38.351 59.724,38.412 59.611,38.48 59.496,38.564 59.398,38.655 59.299,38.761 59.208,38.874 
			59.125,38.997 59.056,39.126 58.987,39.263 58.935,39.414 58.889,39.566 58.858,39.725 58.556,41.296 		"/>
		<polygon fill-rule="evenodd" clip-rule="evenodd" fill="#FFFFFF" points="76.658,37.175 76.561,37.122 76.463,37.076 
			76.354,37.022 76.241,36.969 76.127,36.924 76,36.878 75.869,36.833 75.734,36.788 75.59,36.75 75.443,36.72 75.285,36.689 
			75.127,36.666 74.951,36.65 74.777,36.636 74.595,36.636 74.404,36.636 74.215,36.636 74.018,36.65 73.812,36.674 73.601,36.711 
			73.388,36.772 73.176,36.856 72.963,36.962 72.75,37.098 72.545,37.266 72.347,37.463 72.156,37.706 71.977,37.987 71.809,38.32 
			71.649,38.7 71.505,39.126 71.385,39.612 71.337,39.884 71.309,40.149 71.293,40.416 71.301,40.674 71.322,40.932 71.375,41.175 
			71.443,41.403 71.527,41.63 71.642,41.835 71.777,42.033 71.938,42.207 72.12,42.367 72.324,42.503 72.56,42.617 72.818,42.716 
			73.106,42.785 73.205,42.806 73.32,42.83 73.457,42.845 73.608,42.861 73.773,42.875 73.949,42.875 74.139,42.875 74.329,42.861 
			74.525,42.836 74.724,42.799 74.913,42.746 75.104,42.686 75.293,42.601 75.467,42.503 75.626,42.382 75.778,42.246 
			75.438,44.273 75.391,44.31 75.347,44.356 75.285,44.41 75.218,44.453 75.135,44.514 75.027,44.568 74.905,44.621 74.77,44.666 
			74.595,44.72 74.396,44.757 74.17,44.789 73.903,44.819 73.608,44.833 73.266,44.842 72.88,44.833 72.453,44.811 72.104,44.773 
			71.756,44.697 71.406,44.583 71.058,44.431 70.723,44.25 70.404,44.021 70.102,43.755 69.82,43.453 69.568,43.111 69.357,42.732 
			69.175,42.306 69.039,41.843 68.947,41.334 68.916,40.795 68.932,40.204 69.015,39.573 69.076,39.263 69.144,38.959 
			69.221,38.663 69.297,38.382 69.379,38.116 69.478,37.851 69.577,37.6 69.684,37.365 69.799,37.129 69.911,36.909 70.04,36.697 
			70.176,36.5 70.313,36.309 70.465,36.127 70.616,35.96 70.776,35.801 70.95,35.649 71.125,35.505 71.309,35.375 71.498,35.254 
			71.703,35.14 71.907,35.042 72.12,34.951 72.34,34.867 72.576,34.791 72.81,34.73 73.053,34.677 73.312,34.632 73.569,34.593 
			73.843,34.563 74.116,34.549 74.404,34.54 74.649,34.549 74.883,34.563 75.111,34.586 75.338,34.617 75.551,34.646 75.756,34.692 
			75.953,34.73 76.135,34.776 76.311,34.821 76.463,34.867 76.607,34.913 76.727,34.958 76.834,34.996 76.925,35.027 76.993,35.057 
			77.039,35.073 76.658,37.175 76.658,37.175 		"/>
		<polyline fill="none" stroke="#FFFFFF" stroke-width="0.216" stroke-miterlimit="2.6131" points="76.658,37.175 76.658,37.175 
			76.561,37.122 76.463,37.076 76.354,37.022 76.241,36.969 76.127,36.924 76,36.878 75.869,36.833 75.734,36.788 75.59,36.75 
			75.443,36.72 75.285,36.689 75.127,36.666 74.951,36.65 74.777,36.636 74.595,36.636 74.404,36.636 74.404,36.636 74.215,36.636 
			74.018,36.65 73.812,36.674 73.601,36.711 73.388,36.772 73.176,36.856 72.963,36.962 72.75,37.098 72.545,37.266 72.347,37.463 
			72.156,37.706 71.977,37.987 71.809,38.32 71.649,38.7 71.505,39.126 71.385,39.612 71.385,39.612 71.337,39.884 71.309,40.149 
			71.293,40.416 71.301,40.674 71.322,40.932 71.375,41.175 71.443,41.403 71.527,41.63 71.642,41.835 71.777,42.033 71.938,42.207 
			72.12,42.367 72.324,42.503 72.56,42.617 72.818,42.716 73.106,42.785 73.106,42.785 73.205,42.806 73.32,42.83 73.457,42.845 
			73.608,42.861 73.773,42.875 73.949,42.875 74.139,42.875 74.329,42.861 74.525,42.836 74.724,42.799 74.913,42.746 
			75.104,42.686 75.293,42.601 75.467,42.503 75.626,42.382 75.778,42.246 75.438,44.273 75.438,44.273 75.391,44.31 75.347,44.356 
			75.285,44.41 75.218,44.453 75.135,44.514 75.027,44.568 74.905,44.621 74.77,44.666 74.595,44.72 74.396,44.757 74.17,44.789 
			73.903,44.819 73.608,44.833 73.266,44.842 72.88,44.833 72.453,44.811 72.453,44.811 72.104,44.773 71.756,44.697 71.406,44.583 
			71.058,44.431 70.723,44.25 70.404,44.021 70.102,43.755 69.82,43.453 69.568,43.111 69.357,42.732 69.175,42.306 69.039,41.843 
			68.947,41.334 68.916,40.795 68.932,40.204 69.015,39.573 69.015,39.573 69.076,39.263 69.144,38.959 69.221,38.663 
			69.297,38.382 69.379,38.116 69.478,37.851 69.577,37.6 69.684,37.365 69.799,37.129 69.911,36.909 70.04,36.697 70.176,36.5 
			70.313,36.309 70.465,36.127 70.616,35.96 70.776,35.801 70.95,35.649 71.125,35.505 71.309,35.375 71.498,35.254 71.703,35.14 
			71.907,35.042 72.12,34.951 72.34,34.867 72.576,34.791 72.81,34.73 73.053,34.677 73.312,34.632 73.569,34.593 73.843,34.563 
			74.116,34.549 74.404,34.54 74.404,34.54 74.649,34.549 74.883,34.563 75.111,34.586 75.338,34.617 75.551,34.646 75.756,34.692 
			75.953,34.73 76.135,34.776 76.311,34.821 76.463,34.867 76.607,34.913 76.727,34.958 76.834,34.996 76.925,35.027 76.993,35.057 
			77.039,35.073 76.658,37.175 		"/>
		<polygon fill-rule="evenodd" clip-rule="evenodd" fill="#FFFFFF" points="95.348,44.849 93.244,44.849 93.396,44.007 
			93.396,43.93 93.275,44.083 93.146,44.218 93.018,44.339 92.881,44.447 92.744,44.546 92.607,44.628 92.471,44.697 92.326,44.765 
			92.183,44.819 92.038,44.857 91.894,44.894 91.741,44.916 91.591,44.94 91.446,44.955 91.295,44.962 91.144,44.962 90.748,44.932 
			90.384,44.849 90.05,44.72 89.746,44.546 89.473,44.325 89.229,44.068 89.017,43.786 88.834,43.468 88.684,43.125 88.562,42.769 
			88.479,42.398 88.418,42.009 88.395,41.623 88.402,41.228 88.439,40.841 88.508,40.455 88.622,40.005 88.759,39.581 
			88.919,39.194 89.107,38.83 89.305,38.488 89.533,38.184 89.768,37.912 90.02,37.661 90.285,37.44 90.565,37.25 90.854,37.083 
			91.144,36.955 91.446,36.848 91.75,36.78 92.053,36.735 92.363,36.72 92.585,36.726 92.797,36.75 92.995,36.788 93.177,36.841 
			93.352,36.902 93.504,36.969 93.655,37.054 93.792,37.137 93.913,37.227 94.026,37.327 94.125,37.425 94.217,37.524 
			94.293,37.623 94.361,37.721 94.422,37.813 94.467,37.904 94.467,37.904 95,34.92 97.062,34.92 95.348,44.849 95.348,44.849 		"/>
		<polyline fill="none" stroke="#FFFFFF" stroke-width="0.216" stroke-miterlimit="2.6131" points="95.348,44.849 93.244,44.849 
			93.396,44.007 93.396,43.93 93.396,43.93 93.275,44.083 93.146,44.218 93.018,44.339 92.881,44.447 92.744,44.546 92.607,44.628 
			92.471,44.697 92.326,44.765 92.183,44.819 92.038,44.857 91.894,44.894 91.741,44.916 91.591,44.94 91.446,44.955 91.295,44.962 
			91.144,44.962 91.144,44.962 90.748,44.932 90.384,44.849 90.05,44.72 89.746,44.546 89.473,44.325 89.229,44.068 89.017,43.786 
			88.834,43.468 88.684,43.125 88.562,42.769 88.479,42.398 88.418,42.009 88.395,41.623 88.402,41.228 88.439,40.841 
			88.508,40.455 88.508,40.455 88.622,40.005 88.759,39.581 88.919,39.194 89.107,38.83 89.305,38.488 89.533,38.184 89.768,37.912 
			90.02,37.661 90.285,37.44 90.565,37.25 90.854,37.083 91.144,36.955 91.446,36.848 91.75,36.78 92.053,36.735 92.363,36.72 
			92.363,36.72 92.585,36.726 92.797,36.75 92.995,36.788 93.177,36.841 93.352,36.902 93.504,36.969 93.655,37.054 93.792,37.137 
			93.913,37.227 94.026,37.327 94.125,37.425 94.217,37.524 94.293,37.623 94.361,37.721 94.422,37.813 94.467,37.904 
			94.467,37.904 95,34.92 97.062,34.92 95.348,44.849 		"/>
		<polygon fill-rule="evenodd" clip-rule="evenodd" fill="#FBB231" points="91.908,43.012 92.121,42.998 92.318,42.952 
			92.502,42.898 92.676,42.815 92.836,42.724 92.986,42.609 93.131,42.482 93.26,42.343 93.373,42.191 93.48,42.025 93.578,41.85 
			93.663,41.669 93.738,41.478 93.8,41.281 93.852,41.076 93.891,40.872 93.928,40.66 93.951,40.439 93.951,40.233 93.944,40.021 
			93.921,39.824 93.891,39.634 93.838,39.452 93.776,39.277 93.701,39.126 93.609,38.981 93.512,38.859 93.396,38.753 
			93.268,38.663 93.131,38.602 92.986,38.564 92.828,38.548 92.622,38.564 92.433,38.594 92.258,38.655 92.084,38.73 91.932,38.83 
			91.779,38.951 91.65,39.08 91.521,39.225 91.408,39.39 91.302,39.566 91.201,39.748 91.119,39.945 91.043,40.149 90.983,40.356 
			90.922,40.575 90.877,40.795 90.838,41.13 90.854,41.494 90.906,41.865 91.007,42.222 91.158,42.535 91.355,42.785 91.605,42.952 
			91.908,43.012 91.908,43.012 		"/>
		<polygon fill-rule="evenodd" clip-rule="evenodd" fill="#FFFFFF" points="45.295,43.164 44.99,44.849 43.077,44.849 43.13,44.538 
			43.17,44.257 43.198,44.044 43.229,43.93 43.124,44.052 43.001,44.173 42.858,44.288 42.698,44.393 42.516,44.5 42.326,44.59 
			42.128,44.681 41.923,44.757 41.702,44.826 41.484,44.88 41.263,44.925 41.036,44.955 40.815,44.97 40.596,44.978 40.383,44.955 
			40.177,44.925 39.912,44.857 39.669,44.781 39.457,44.681 39.267,44.568 39.101,44.447 38.949,44.31 38.827,44.166 38.72,44.014 
			38.63,43.855 38.553,43.687 38.493,43.521 38.447,43.354 38.417,43.179 38.394,43.003 38.379,42.836 38.379,42.669 38.401,42.374 
			38.447,42.093 38.523,41.828 38.622,41.57 38.743,41.327 38.879,41.107 39.039,40.895 39.222,40.705 39.412,40.53 39.624,40.37 
			39.845,40.226 40.071,40.104 40.314,40 40.565,39.915 40.823,39.847 41.089,39.801 41.104,39.801 41.142,39.793 41.196,39.786 
			41.278,39.778 41.37,39.763 41.476,39.755 41.589,39.74 41.719,39.725 41.848,39.71 41.978,39.695 42.115,39.687 42.235,39.672 
			42.357,39.665 42.47,39.656 42.577,39.649 42.66,39.649 42.835,39.649 43.018,39.656 43.184,39.665 43.351,39.665 43.487,39.672 
			43.594,39.679 43.669,39.687 43.692,39.687 43.708,39.634 43.753,39.498 43.79,39.337 43.806,39.194 43.775,39.027 43.708,38.874 
			43.616,38.738 43.494,38.624 43.351,38.527 43.191,38.458 43.009,38.412 42.812,38.397 42.6,38.389 42.371,38.382 42.136,38.382 
			41.894,38.389 41.643,38.405 41.399,38.427 41.157,38.45 40.922,38.48 40.693,38.51 40.473,38.548 40.276,38.585 40.095,38.624 
			39.928,38.671 39.79,38.715 39.685,38.769 39.6,38.814 40.14,36.985 40.307,36.917 40.473,36.856 40.656,36.803 40.838,36.764 
			41.021,36.726 41.218,36.697 41.415,36.666 41.62,36.65 41.832,36.636 42.053,36.628 42.28,36.62 42.516,36.62 42.759,36.62 
			43.009,36.62 43.275,36.628 43.541,36.636 43.753,36.65 43.981,36.689 44.216,36.742 44.458,36.811 44.694,36.902 44.922,37.008 
			45.149,37.137 45.364,37.281 45.551,37.449 45.72,37.63 45.872,37.834 45.984,38.062 46.061,38.307 46.105,38.564 46.105,38.852 
			46.061,39.156 45.295,43.164 45.295,43.164 		"/>
		<polyline fill="none" stroke="#FFFFFF" stroke-width="0.216" stroke-miterlimit="2.6131" points="45.295,43.164 44.99,44.849 
			43.077,44.849 43.077,44.849 43.13,44.538 43.17,44.257 43.198,44.044 43.229,43.93 43.229,43.93 43.124,44.052 43.001,44.173 
			42.858,44.288 42.698,44.393 42.516,44.5 42.326,44.59 42.128,44.681 41.923,44.757 41.702,44.826 41.484,44.88 41.263,44.925 
			41.036,44.955 40.815,44.97 40.596,44.978 40.383,44.955 40.177,44.925 40.177,44.925 39.912,44.857 39.669,44.781 39.457,44.681 
			39.267,44.568 39.101,44.447 38.949,44.31 38.827,44.166 38.72,44.014 38.63,43.855 38.553,43.687 38.493,43.521 38.447,43.354 
			38.417,43.179 38.394,43.003 38.379,42.836 38.379,42.669 38.379,42.669 38.401,42.374 38.447,42.093 38.523,41.828 38.622,41.57 
			38.743,41.327 38.879,41.107 39.039,40.895 39.222,40.705 39.412,40.53 39.624,40.37 39.845,40.226 40.071,40.104 40.314,40 
			40.565,39.915 40.823,39.847 41.089,39.801 41.089,39.801 41.104,39.801 41.142,39.793 41.196,39.786 41.278,39.778 41.37,39.763 
			41.476,39.755 41.589,39.74 41.719,39.725 41.848,39.71 41.978,39.695 42.115,39.687 42.235,39.672 42.357,39.665 42.47,39.656 
			42.577,39.649 42.66,39.649 42.66,39.649 42.835,39.649 43.018,39.656 43.184,39.665 43.351,39.665 43.487,39.672 43.594,39.679 
			43.669,39.687 43.692,39.687 43.692,39.687 43.708,39.634 43.753,39.498 43.79,39.337 43.806,39.194 43.806,39.194 43.775,39.027 
			43.708,38.874 43.616,38.738 43.494,38.624 43.351,38.527 43.191,38.458 43.009,38.412 42.812,38.397 42.812,38.397 42.6,38.389 
			42.371,38.382 42.136,38.382 41.894,38.389 41.643,38.405 41.399,38.427 41.157,38.45 40.922,38.48 40.693,38.51 40.473,38.548 
			40.276,38.585 40.095,38.624 39.928,38.671 39.79,38.715 39.685,38.769 39.6,38.814 40.14,36.985 40.14,36.985 40.307,36.917 
			40.473,36.856 40.656,36.803 40.838,36.764 41.021,36.726 41.218,36.697 41.415,36.666 41.62,36.65 41.832,36.636 42.053,36.628 
			42.28,36.62 42.516,36.62 42.759,36.62 43.009,36.62 43.275,36.628 43.541,36.636 43.541,36.636 43.753,36.65 43.981,36.689 
			44.216,36.742 44.458,36.811 44.694,36.902 44.922,37.008 45.149,37.137 45.364,37.281 45.551,37.449 45.72,37.63 45.872,37.834 
			45.984,38.062 46.061,38.307 46.105,38.564 46.105,38.852 46.061,39.156 45.295,43.164 		"/>
		<polygon fill-rule="evenodd" clip-rule="evenodd" fill="#EC1C2E" points="43.465,41.182 43.457,41.144 43.426,41.107 
			43.381,41.083 43.306,41.069 43.222,41.054 43.124,41.045 43.009,41.045 42.895,41.045 42.774,41.054 42.646,41.069 
			42.524,41.083 42.402,41.099 42.288,41.115 42.182,41.136 42.091,41.16 42.007,41.182 41.955,41.197 41.894,41.221 41.81,41.251 
			41.726,41.289 41.627,41.334 41.529,41.388 41.423,41.441 41.324,41.501 41.218,41.578 41.119,41.653 41.027,41.745 
			40.945,41.835 40.868,41.933 40.815,42.041 40.771,42.162 40.747,42.283 40.74,42.542 40.777,42.746 40.854,42.898 40.952,43.012 
			41.066,43.087 41.196,43.133 41.317,43.156 41.438,43.164 41.666,43.156 41.871,43.133 42.068,43.102 42.244,43.057 
			42.394,43.003 42.539,42.937 42.667,42.868 42.782,42.785 42.881,42.708 42.97,42.617 43.047,42.535 43.108,42.443 43.16,42.351 
			43.208,42.261 43.245,42.177 43.266,42.093 43.328,41.875 43.381,41.623 43.426,41.38 43.465,41.182 43.465,41.182 		"/>
		<polygon fill-rule="evenodd" clip-rule="evenodd" fill="#FFFFFF" points="29.322,44.849 27.259,44.849 28.982,34.883 
			32.571,34.883 32.914,40.795 35.396,34.883 39.146,34.883 37.384,44.849 35.32,44.849 36.625,37.403 36.543,37.403 33.452,44.849 
			31.123,44.849 31.107,44.538 31.054,43.71 30.986,42.535 30.91,41.182 30.833,39.824 30.765,38.633 30.712,37.768 30.696,37.403 
			30.675,37.403 30.629,37.403 30.583,37.403 30.583,37.403 29.322,44.849 29.322,44.849 		"/>
		<polyline fill="none" stroke="#FFFFFF" stroke-width="0.216" stroke-miterlimit="2.6131" points="29.322,44.849 27.259,44.849 
			28.982,34.883 32.571,34.883 32.914,40.795 35.396,34.883 39.146,34.883 37.384,44.849 35.32,44.849 36.625,37.403 36.543,37.403 
			33.452,44.849 31.123,44.849 31.123,44.849 31.107,44.538 31.054,43.71 30.986,42.535 30.91,41.182 30.833,39.824 30.765,38.633 
			30.712,37.768 30.696,37.403 30.696,37.403 30.675,37.403 30.629,37.403 30.583,37.403 30.583,37.403 29.322,44.849 		"/>
		<polygon fill-rule="evenodd" clip-rule="evenodd" fill="#FFFFFF" points="82.969,43.164 82.656,44.849 80.751,44.849 
			80.766,44.538 80.773,44.265 80.773,44.06 80.788,43.969 80.69,44.083 80.576,44.197 80.439,44.302 80.287,44.41 80.129,44.507 
			79.946,44.598 79.756,44.69 79.566,44.765 79.361,44.826 79.148,44.886 78.938,44.925 78.725,44.955 78.504,44.97 78.292,44.978 
			78.086,44.955 77.881,44.925 77.607,44.857 77.366,44.781 77.152,44.681 76.954,44.568 76.788,44.447 76.644,44.31 76.522,44.166 
			76.417,44.014 76.326,43.855 76.257,43.687 76.196,43.521 76.158,43.354 76.127,43.179 76.105,43.003 76.089,42.836 
			76.089,42.669 76.105,42.374 76.15,42.093 76.219,41.828 76.318,41.57 76.432,41.327 76.576,41.107 76.734,40.895 76.91,40.705 
			77.107,40.53 77.312,40.37 77.532,40.226 77.768,40.104 78.003,40 78.253,39.915 78.504,39.847 78.762,39.801 78.777,39.801 
			78.814,39.793 78.868,39.786 78.943,39.778 79.043,39.763 79.148,39.755 79.264,39.74 79.383,39.725 79.514,39.71 79.65,39.695 
			79.779,39.687 79.908,39.672 80.029,39.665 80.135,39.656 80.242,39.649 80.325,39.649 80.508,39.649 80.69,39.656 80.865,39.665 
			81.031,39.665 81.176,39.672 81.297,39.679 81.365,39.687 81.396,39.687 81.412,39.634 81.435,39.498 81.457,39.337 
			81.471,39.194 81.441,39.027 81.382,38.874 81.283,38.738 81.168,38.624 81.031,38.527 80.873,38.458 80.705,38.412 
			80.522,38.397 80.31,38.389 80.083,38.382 79.848,38.382 79.604,38.389 79.354,38.405 79.111,38.427 78.868,38.45 78.633,38.48 
			78.404,38.51 78.186,38.548 77.987,38.585 77.806,38.624 77.639,38.671 77.502,38.715 77.395,38.769 77.312,38.814 77.844,36.985 
			78.01,36.917 78.186,36.856 78.359,36.803 78.541,36.764 78.731,36.726 78.922,36.697 79.117,36.666 79.324,36.65 79.535,36.636 
			79.756,36.628 79.977,36.62 80.212,36.62 80.447,36.62 80.69,36.62 80.948,36.628 81.206,36.636 81.419,36.65 81.646,36.689 
			81.881,36.742 82.125,36.811 82.361,36.902 82.595,37.008 82.822,37.137 83.035,37.281 83.227,37.449 83.399,37.63 83.551,37.834 
			83.666,38.062 83.749,38.307 83.803,38.564 83.803,38.852 83.765,39.156 82.969,43.164 82.969,43.164 		"/>
		<polygon fill-rule="evenodd" clip-rule="evenodd" fill="#FFFFFF" points="82.656,44.902 82.701,44.857 83.013,43.171 
			82.922,43.156 82.61,44.842 82.656,44.795 82.656,44.902 82.693,44.894 82.701,44.857 82.656,44.902 82.656,44.902 		"/>
		<polygon fill-rule="evenodd" clip-rule="evenodd" fill="#FFFFFF" points="80.705,44.849 80.751,44.902 82.656,44.902 
			82.656,44.795 80.751,44.795 80.797,44.849 80.705,44.849 80.698,44.902 80.751,44.902 80.705,44.849 80.705,44.849 		"/>
		<polygon fill-rule="evenodd" clip-rule="evenodd" fill="#FFFFFF" points="80.827,43.998 80.758,43.938 80.729,44.06 
			80.719,44.265 80.719,44.538 80.705,44.849 80.797,44.849 80.812,44.538 80.827,44.265 80.819,44.06 80.819,43.998 80.751,43.938 
			80.827,43.998 80.827,43.998 		"/>
		<polygon fill-rule="evenodd" clip-rule="evenodd" fill="#FFFFFF" points="77.874,44.97 77.874,44.97 78.086,45.001 78.292,45.023 
			78.504,45.017 78.725,45.001 78.943,44.97 79.156,44.932 79.369,44.873 79.581,44.811 79.771,44.735 79.969,44.644 80.152,44.554 
			80.31,44.447 80.47,44.339 80.605,44.235 80.729,44.113 80.827,43.998 80.751,43.938 80.652,44.052 80.546,44.158 80.408,44.265 
			80.266,44.371 80.105,44.462 79.924,44.554 79.741,44.644 79.551,44.72 79.354,44.781 79.142,44.842 78.928,44.88 78.725,44.91 
			78.504,44.925 78.292,44.932 78.086,44.91 77.89,44.88 77.89,44.88 77.874,44.97 77.874,44.97 		"/>
		<polygon fill-rule="evenodd" clip-rule="evenodd" fill="#FFFFFF" points="76.037,42.669 76.037,42.669 76.044,42.836 
			76.06,43.003 76.083,43.187 76.113,43.361 76.15,43.529 76.212,43.703 76.279,43.876 76.379,44.037 76.484,44.197 76.607,44.339 
			76.758,44.484 76.933,44.606 77.13,44.728 77.352,44.826 77.6,44.902 77.874,44.97 77.89,44.88 77.615,44.811 77.381,44.735 
			77.176,44.637 76.978,44.53 76.818,44.41 76.682,44.279 76.561,44.135 76.453,43.991 76.371,43.832 76.303,43.672 76.241,43.514 
			76.204,43.346 76.174,43.171 76.15,43.003 76.135,42.836 76.143,42.669 76.143,42.669 76.037,42.669 76.037,42.669 		"/>
		<polygon fill-rule="evenodd" clip-rule="evenodd" fill="#FFFFFF" points="78.762,39.755 78.762,39.755 78.496,39.801 
			78.238,39.87 77.987,39.953 77.745,40.059 77.509,40.18 77.282,40.333 77.076,40.493 76.879,40.674 76.697,40.864 76.537,41.076 
			76.386,41.304 76.271,41.555 76.174,41.812 76.105,42.085 76.06,42.374 76.037,42.669 76.143,42.669 76.15,42.374 76.196,42.101 
			76.265,41.843 76.363,41.585 76.477,41.349 76.613,41.136 76.773,40.924 76.939,40.736 77.137,40.568 77.342,40.408 
			77.554,40.272 77.791,40.149 78.018,40.044 78.269,39.961 78.512,39.892 78.762,39.847 78.762,39.847 78.762,39.755 
			78.762,39.755 		"/>
		<polygon fill-rule="evenodd" clip-rule="evenodd" fill="#FFFFFF" points="80.325,39.596 80.325,39.596 80.242,39.596 
			80.135,39.612 80.029,39.621 79.908,39.626 79.779,39.641 79.65,39.649 79.514,39.665 79.383,39.679 79.264,39.695 79.148,39.71 
			79.043,39.717 78.943,39.733 78.868,39.74 78.807,39.748 78.777,39.755 78.762,39.755 78.762,39.847 78.777,39.847 78.822,39.838 
			78.868,39.832 78.943,39.824 79.043,39.809 79.148,39.801 79.264,39.786 79.383,39.77 79.514,39.755 79.65,39.74 79.779,39.733 
			79.908,39.717 80.029,39.71 80.135,39.702 80.242,39.702 80.325,39.702 80.325,39.702 80.325,39.596 80.325,39.596 		"/>
		<polygon fill-rule="evenodd" clip-rule="evenodd" fill="#FFFFFF" points="81.351,39.679 81.396,39.641 81.365,39.641 
			81.297,39.634 81.176,39.626 81.031,39.612 80.865,39.612 80.69,39.612 80.508,39.596 80.325,39.596 80.325,39.702 80.508,39.702 
			80.69,39.702 80.865,39.717 81.031,39.717 81.176,39.717 81.297,39.725 81.365,39.733 81.396,39.733 81.441,39.695 81.396,39.733 
			81.435,39.74 81.441,39.695 81.351,39.679 81.351,39.679 		"/>
		<polygon fill-rule="evenodd" clip-rule="evenodd" fill="#FFFFFF" points="81.427,39.194 81.419,39.194 81.412,39.337 
			81.388,39.49 81.365,39.626 81.351,39.679 81.441,39.695 81.457,39.641 81.479,39.503 81.501,39.337 81.524,39.194 81.518,39.194 
			81.427,39.194 81.427,39.194 		"/>
		<polygon fill-rule="evenodd" clip-rule="evenodd" fill="#FFFFFF" points="80.522,38.442 80.522,38.45 80.698,38.458 
			80.857,38.503 81.008,38.571 81.138,38.663 81.243,38.769 81.334,38.897 81.396,39.034 81.427,39.194 81.518,39.194 81.486,39.02 
			81.427,38.852 81.32,38.708 81.199,38.585 81.055,38.48 80.887,38.412 80.713,38.367 80.522,38.344 80.522,38.351 80.522,38.442 
			80.522,38.442 		"/>
		<polygon fill-rule="evenodd" clip-rule="evenodd" fill="#FFFFFF" points="77.267,38.807 77.342,38.852 77.418,38.814 
			77.517,38.761 77.646,38.715 77.812,38.671 77.996,38.633 78.191,38.594 78.412,38.556 78.633,38.527 78.868,38.495 
			79.111,38.472 79.354,38.45 79.604,38.435 79.848,38.435 80.083,38.435 80.31,38.435 80.522,38.442 80.522,38.351 80.31,38.344 
			80.083,38.328 79.848,38.328 79.604,38.344 79.354,38.358 79.111,38.382 78.868,38.405 78.633,38.435 78.397,38.464 
			78.177,38.503 77.98,38.542 77.797,38.58 77.631,38.624 77.486,38.671 77.373,38.723 77.282,38.776 77.357,38.822 77.267,38.807 
			77.267,38.807 		"/>
		<polygon fill-rule="evenodd" clip-rule="evenodd" fill="#FFFFFF" points="77.829,36.939 77.797,36.978 77.267,38.807 
			77.357,38.822 77.89,36.992 77.858,37.031 77.829,36.939 77.806,36.947 77.797,36.978 77.829,36.939 77.829,36.939 		"/>
		<polygon fill-rule="evenodd" clip-rule="evenodd" fill="#FFFFFF" points="81.206,36.591 81.206,36.591 80.948,36.576 
			80.69,36.567 80.447,36.567 80.212,36.567 79.977,36.567 79.756,36.583 79.535,36.591 79.324,36.606 79.117,36.62 78.913,36.65 
			78.725,36.681 78.535,36.72 78.352,36.758 78.17,36.811 77.996,36.871 77.829,36.939 77.858,37.031 78.026,36.962 78.199,36.902 
			78.367,36.848 78.55,36.811 78.74,36.772 78.928,36.742 79.117,36.711 79.324,36.697 79.535,36.681 79.756,36.674 79.977,36.674 
			80.212,36.674 80.447,36.674 80.69,36.674 80.948,36.681 81.206,36.681 81.206,36.681 81.206,36.591 81.206,36.591 		"/>
		<polygon fill-rule="evenodd" clip-rule="evenodd" fill="#FFFFFF" points="83.811,39.164 83.811,39.164 83.848,38.852 
			83.848,38.564 83.795,38.297 83.711,38.047 83.59,37.813 83.437,37.6 83.255,37.411 83.066,37.243 82.846,37.098 82.617,36.962 
			82.375,36.856 82.14,36.764 81.891,36.697 81.653,36.644 81.419,36.606 81.206,36.591 81.206,36.681 81.419,36.697 81.639,36.735 
			81.874,36.788 82.108,36.856 82.346,36.947 82.572,37.054 82.801,37.175 83.005,37.319 83.195,37.485 83.361,37.661 
			83.514,37.857 83.619,38.079 83.703,38.314 83.757,38.564 83.757,38.852 83.719,39.149 83.719,39.149 83.811,39.164 
			83.811,39.164 		"/>
		<polygon fill-rule="evenodd" clip-rule="evenodd" fill="#FFFFFF" points="83.013,43.171 83.013,43.171 83.811,39.164 
			83.719,39.149 82.922,43.156 82.922,43.156 83.013,43.171 83.013,43.171 		"/>
		<polygon fill-rule="evenodd" clip-rule="evenodd" fill="#FBB231" points="81.13,41.182 81.115,41.136 81.086,41.099 
			81.031,41.076 80.956,41.054 80.873,41.045 80.773,41.038 80.659,41.038 80.546,41.045 80.424,41.061 80.303,41.076 
			80.182,41.091 80.066,41.107 79.955,41.13 79.855,41.144 79.756,41.167 79.68,41.182 79.628,41.19 79.566,41.212 79.491,41.236 
			79.406,41.266 79.308,41.31 79.218,41.357 79.111,41.411 79.013,41.478 78.913,41.546 78.814,41.63 78.731,41.712 78.648,41.812 
			78.579,41.918 78.525,42.033 78.481,42.154 78.459,42.283 78.451,42.542 78.486,42.746 78.55,42.898 78.641,43.012 78.754,43.087 
			78.884,43.133 79.013,43.156 79.142,43.164 79.369,43.156 79.581,43.133 79.779,43.095 79.955,43.042 80.121,42.982 
			80.266,42.914 80.401,42.836 80.522,42.746 80.63,42.663 80.719,42.564 80.804,42.472 80.873,42.374 80.925,42.283 80.964,42.191 
			80.994,42.101 81.016,42.017 81.047,41.804 81.086,41.585 81.115,41.373 81.13,41.182 81.13,41.182 		"/>
		<polygon fill-rule="evenodd" clip-rule="evenodd" fill="#FFFFFF" points="96.766,43.81 96.783,43.634 96.842,43.429 
			96.949,43.248 97.078,43.087 97.238,42.959 97.421,42.868 97.618,42.806 97.83,42.785 98.043,42.806 98.24,42.868 98.422,42.959 
			98.582,43.087 98.711,43.248 98.817,43.429 98.877,43.634 98.894,43.81 98.665,43.81 98.658,43.672 98.611,43.505 98.535,43.354 
			98.438,43.224 98.316,43.118 98.172,43.042 98.005,42.99 97.83,42.974 97.656,42.99 97.489,43.042 97.345,43.118 97.223,43.224 
			97.124,43.354 97.049,43.505 97.003,43.672 96.987,43.81 96.766,43.81 96.766,43.81 		"/>
		<polygon fill-rule="evenodd" clip-rule="evenodd" fill="#FFFFFF" points="97.45,43.81 97.45,43.354 97.867,43.354 97.959,43.361 
			98.043,43.376 98.104,43.399 98.156,43.429 98.194,43.475 98.225,43.521 98.24,43.574 98.248,43.626 98.24,43.695 98.225,43.748 
			98.202,43.794 98.187,43.81 97.867,43.81 97.897,43.801 97.951,43.794 97.996,43.779 98.035,43.763 98.065,43.742 98.081,43.717 
			98.096,43.681 98.096,43.626 98.088,43.589 98.072,43.558 98.051,43.543 98.027,43.529 97.988,43.521 97.951,43.514 
			97.913,43.514 97.867,43.514 97.641,43.514 97.641,43.81 97.45,43.81 97.45,43.81 		"/>
		<polygon fill-rule="evenodd" clip-rule="evenodd" fill="#FFFFFF" points="96.766,43.81 96.76,43.855 96.783,44.075 96.842,44.279 
			96.949,44.462 97.078,44.614 97.238,44.742 97.421,44.842 97.618,44.902 97.83,44.925 98.043,44.902 98.24,44.842 98.422,44.742 
			98.582,44.614 98.711,44.462 98.817,44.279 98.877,44.075 98.899,43.855 98.894,43.81 98.665,43.81 98.673,43.855 98.658,44.037 
			98.611,44.205 98.535,44.349 98.438,44.476 98.316,44.583 98.172,44.666 98.005,44.72 97.83,44.735 97.656,44.72 97.489,44.666 
			97.345,44.583 97.223,44.476 97.124,44.349 97.049,44.205 97.003,44.037 96.987,43.855 96.987,43.81 96.766,43.81 96.766,43.81 		
			"/>
		<polygon fill-rule="evenodd" clip-rule="evenodd" fill="#FFFFFF" points="97.45,43.81 97.45,44.273 97.641,44.273 97.641,43.893 
			97.83,43.893 98.057,44.273 98.21,44.273 97.982,43.893 98.035,43.893 98.088,43.876 98.133,43.862 98.172,43.832 98.187,43.81 
			97.867,43.81 97.83,43.817 97.641,43.817 97.641,43.81 97.45,43.81 97.45,43.81 		"/>
		<path fill="none" stroke="#FFFFFF" stroke-width="0.216" stroke-miterlimit="2.6131" d="M96.76,43.855L96.76,43.855l0.023-0.221
			l0.059-0.205l0.107-0.182l0.129-0.16l0.16-0.128l0.183-0.092l0.197-0.062l0.212-0.021l0,0l0.213,0.021l0.197,0.062l0.182,0.092
			l0.16,0.128l0.129,0.16l0.106,0.182l0.06,0.205l0.022,0.221l0,0l-0.022,0.22l-0.06,0.204l-0.106,0.184l-0.129,0.151l-0.16,0.128
			l-0.182,0.101l-0.197,0.06l-0.213,0.023l0,0l-0.212-0.023l-0.197-0.06l-0.183-0.101l-0.16-0.128l-0.129-0.151l-0.107-0.184
			l-0.059-0.204L96.76,43.855 M97.641,44.273h-0.19v-0.919h0.417l0,0l0.092,0.007l0.084,0.016l0.061,0.022l0.053,0.03l0.038,0.046
			l0.03,0.046l0.016,0.053l0.008,0.053l0,0l-0.008,0.068l-0.016,0.053l-0.022,0.047l-0.03,0.037l-0.039,0.03l-0.045,0.015
			l-0.053,0.017h-0.053l0.228,0.38h-0.153l-0.227-0.38h-0.189V44.273 M97.83,43.817L97.83,43.817l0.067-0.016l0.054-0.007
			l0.045-0.016l0.039-0.016l0.03-0.021l0.016-0.024l0.015-0.036v-0.055l0,0l-0.008-0.037l-0.016-0.031l-0.021-0.015l-0.023-0.015
			l-0.039-0.008l-0.037-0.007h-0.038h-0.046h-0.227v0.303H97.83 M97.83,44.735L97.83,44.735l0.175-0.015l0.167-0.055l0.145-0.082
			l0.121-0.107l0.098-0.127l0.076-0.145l0.047-0.168l0.015-0.182l0,0l-0.015-0.183l-0.047-0.167l-0.076-0.151l-0.098-0.13
			l-0.121-0.106l-0.145-0.075l-0.167-0.053l-0.175-0.016l0,0l-0.174,0.016l-0.167,0.053l-0.145,0.075l-0.122,0.106l-0.099,0.13
			l-0.075,0.151l-0.046,0.167l-0.016,0.183l0,0l0.016,0.182l0.046,0.168l0.075,0.145l0.099,0.127l0.122,0.107l0.145,0.082
			l0.167,0.055L97.83,44.735"/>
		<polygon fill-rule="evenodd" clip-rule="evenodd" fill="#FFFFFF" points="83.537,44.849 85.679,44.849 85.679,44.849 
			86.444,40.53 86.475,40.364 86.521,40.196 86.565,40.029 86.627,39.862 86.702,39.695 86.793,39.535 86.893,39.384 87.014,39.239 
			87.15,39.111 87.302,38.989 87.477,38.874 87.674,38.783 87.894,38.708 88.137,38.647 88.402,38.602 88.697,38.585 88.805,38.585 
			88.865,38.585 88.888,38.585 88.888,38.585 89.229,36.636 89.017,36.65 88.812,36.674 88.622,36.711 88.439,36.764 88.273,36.825 
			88.113,36.902 87.961,36.985 87.816,37.076 87.682,37.183 87.552,37.289 87.431,37.411 87.31,37.531 87.195,37.661 87.082,37.804 
			86.968,37.941 86.862,38.093 87.09,36.72 84.956,36.72 83.537,44.849 83.537,44.849 83.537,44.849 		"/>
		<polyline fill="none" stroke="#FFFFFF" stroke-width="0.216" stroke-miterlimit="2.6131" points="83.537,44.849 85.679,44.849 
			85.679,44.849 86.444,40.53 86.444,40.53 86.475,40.364 86.521,40.196 86.565,40.029 86.627,39.862 86.702,39.695 86.793,39.535 
			86.893,39.384 87.014,39.239 87.15,39.111 87.302,38.989 87.477,38.874 87.674,38.783 87.894,38.708 88.137,38.647 88.402,38.602 
			88.697,38.585 88.697,38.585 88.805,38.585 88.865,38.585 88.888,38.585 88.888,38.585 89.229,36.636 89.229,36.636 89.017,36.65 
			88.812,36.674 88.622,36.711 88.439,36.764 88.273,36.825 88.113,36.902 87.961,36.985 87.816,37.076 87.682,37.183 
			87.552,37.289 87.431,37.411 87.31,37.531 87.195,37.661 87.082,37.804 86.968,37.941 86.862,38.093 87.09,36.72 84.956,36.72 
			83.537,44.849 83.537,44.849 		"/>
		<polygon fill-rule="evenodd" clip-rule="evenodd" fill="#FFFFFF" points="63.437,44.849 65.576,44.849 65.614,44.849 
			66.344,40.53 66.374,40.364 66.412,40.204 66.449,40.044 66.503,39.892 66.562,39.74 66.64,39.596 66.73,39.459 66.836,39.331 
			66.958,39.215 67.095,39.103 67.263,39.011 67.443,38.928 67.656,38.859 67.893,38.8 68.15,38.761 68.445,38.738 68.469,38.738 
			68.5,38.746 68.537,38.753 68.575,38.753 68.613,38.761 68.645,38.769 68.665,38.776 68.674,38.776 68.682,38.746 68.704,38.655 
			68.734,38.519 68.773,38.351 68.825,38.154 68.879,37.941 68.947,37.729 69.015,37.515 69.076,37.372 69.152,37.227 
			69.229,37.083 69.304,36.955 69.371,36.841 69.425,36.75 69.463,36.697 69.478,36.674 69.472,36.674 69.44,36.666 69.403,36.658 
			69.35,36.65 69.297,36.65 69.236,36.644 69.183,36.636 69.129,36.636 68.894,36.65 68.682,36.674 68.484,36.711 68.303,36.758 
			68.128,36.818 67.968,36.895 67.823,36.969 67.687,37.06 67.559,37.16 67.436,37.273 67.322,37.388 67.209,37.515 67.095,37.646 
			66.988,37.791 66.875,37.941 66.761,38.093 67.033,36.72 64.855,36.72 63.437,44.849 63.437,44.849 63.437,44.849 		"/>
		<polyline fill="none" stroke="#FFFFFF" stroke-width="0.216" stroke-miterlimit="2.6131" points="63.437,44.849 65.576,44.849 
			65.614,44.849 66.344,40.53 66.344,40.53 66.374,40.364 66.412,40.204 66.449,40.044 66.503,39.892 66.562,39.74 66.64,39.596 
			66.73,39.459 66.836,39.331 66.958,39.215 67.095,39.103 67.263,39.011 67.443,38.928 67.656,38.859 67.893,38.8 68.15,38.761 
			68.445,38.738 68.445,38.738 68.469,38.738 68.5,38.746 68.537,38.753 68.575,38.753 68.613,38.761 68.645,38.769 68.665,38.776 
			68.674,38.776 68.674,38.776 68.682,38.746 68.704,38.655 68.734,38.519 68.773,38.351 68.825,38.154 68.879,37.941 
			68.947,37.729 69.015,37.515 69.015,37.515 69.076,37.372 69.152,37.227 69.229,37.083 69.304,36.955 69.371,36.841 69.425,36.75 
			69.463,36.697 69.478,36.674 69.478,36.674 69.472,36.674 69.44,36.666 69.403,36.658 69.35,36.65 69.297,36.65 69.236,36.644 
			69.183,36.636 69.129,36.636 69.129,36.636 68.894,36.65 68.682,36.674 68.484,36.711 68.303,36.758 68.128,36.818 67.968,36.895 
			67.823,36.969 67.687,37.06 67.559,37.16 67.436,37.273 67.322,37.388 67.209,37.515 67.095,37.646 66.988,37.791 66.875,37.941 
			66.761,38.093 67.033,36.72 64.855,36.72 63.437,44.849 63.437,44.849 		"/>
		<polygon fill-rule="evenodd" clip-rule="evenodd" fill="#FBB231" points="96.783,52.834 96.783,52.804 96.842,52.607 
			96.949,52.432 97.078,52.281 97.238,52.16 97.421,52.068 97.618,52.015 97.83,51.992 98.043,52.015 98.24,52.068 98.422,52.16 
			98.582,52.281 98.711,52.432 98.817,52.607 98.877,52.804 98.877,52.834 98.658,52.834 98.611,52.676 98.535,52.531 
			98.438,52.402 98.316,52.296 98.172,52.212 98.005,52.16 97.83,52.144 97.656,52.16 97.489,52.212 97.345,52.296 97.223,52.402 
			97.124,52.531 97.049,52.676 97.003,52.834 96.783,52.834 96.783,52.834 		"/>
		<polygon fill-rule="evenodd" clip-rule="evenodd" fill="#FBB231" points="97.45,52.834 97.45,52.57 97.867,52.57 97.959,52.57 
			98.043,52.584 98.104,52.598 98.156,52.628 98.194,52.667 98.225,52.713 98.24,52.766 98.248,52.834 98.096,52.834 98.096,52.796 
			98.088,52.758 98.072,52.728 98.051,52.713 98.027,52.698 97.988,52.69 97.951,52.683 97.913,52.683 97.867,52.683 97.641,52.683 
			97.641,52.834 97.45,52.834 97.45,52.834 		"/>
		<polygon fill-rule="evenodd" clip-rule="evenodd" fill="#FBB231" points="96.76,53.001 96.783,52.834 97.003,52.834 
			97.003,52.841 96.987,53.001 96.76,53.001 96.76,53.001 		"/>
		<polygon fill-rule="evenodd" clip-rule="evenodd" fill="#FBB231" points="97.45,53.001 97.45,52.834 97.641,52.834 97.641,52.986 
			97.83,52.986 97.897,52.972 97.951,52.964 97.996,52.948 98.035,52.933 98.065,52.911 98.081,52.887 98.096,52.851 98.096,52.834 
			98.248,52.834 98.248,52.834 98.24,52.887 98.225,52.933 98.202,52.972 98.172,53.001 97.45,53.001 97.45,53.001 		"/>
		<polygon fill-rule="evenodd" clip-rule="evenodd" fill="#FBB231" points="98.673,53.001 98.658,52.841 98.658,52.834 
			98.877,52.834 98.899,53.001 98.673,53.001 98.673,53.001 		"/>
		<polygon fill-rule="evenodd" clip-rule="evenodd" fill="#FBB231" points="96.76,53.001 96.76,53.024 96.783,53.244 96.842,53.449 
			96.949,53.631 97.078,53.791 97.238,53.92 97.421,54.01 97.618,54.072 97.83,54.094 98.043,54.072 98.24,54.01 98.422,53.92 
			98.582,53.791 98.711,53.631 98.817,53.449 98.877,53.244 98.899,53.024 98.899,53.001 98.673,53.001 98.673,53.024 
			98.658,53.207 98.611,53.374 98.535,53.517 98.438,53.645 98.316,53.753 98.172,53.836 98.005,53.89 97.83,53.905 97.656,53.89 
			97.489,53.836 97.345,53.753 97.223,53.645 97.124,53.517 97.049,53.374 97.003,53.207 96.987,53.024 96.987,53.001 96.76,53.001 
			96.76,53.001 		"/>
		<polygon fill-rule="evenodd" clip-rule="evenodd" fill="#FBB231" points="97.45,53.001 97.45,53.442 97.641,53.442 97.641,53.062 
			97.83,53.062 98.057,53.442 98.21,53.442 97.982,53.062 98.035,53.062 98.088,53.047 98.133,53.032 98.172,53.001 98.172,53.001 
			97.45,53.001 97.45,53.001 		"/>
		<path fill-rule="evenodd" clip-rule="evenodd" fill="#FFFFFF" d="M63.672,39.14l-0.061-0.454l-0.107-0.403l-0.151-0.349
			l-0.19-0.304l-0.227-0.259l-0.25-0.212l-0.273-0.182l-0.297-0.136l-0.303-0.115l-0.312-0.076l-0.312-0.053l-0.312-0.03
			l-0.296-0.008l-0.616,0.032l-0.545,0.09l-0.495,0.137l-0.439,0.19l-0.379,0.228l-0.335,0.258l-0.296,0.288l-0.242,0.304
			l-0.213,0.319l-0.174,0.333l-0.136,0.327l-0.115,0.325l-0.083,0.32l-0.062,0.295l-0.044,0.281l-0.03,0.243l-0.039,0.622
			l0.023,0.561l0.083,0.51l0.128,0.447l0.184,0.402l0.22,0.35l0.257,0.312l0.296,0.258l0.319,0.221l0.343,0.188l0.356,0.146
			l0.372,0.112l0.379,0.092l0.381,0.054l0.378,0.038l0.372,0.007h0.25l0.237-0.007h0.204l0.198-0.009l0.175-0.015l0.159-0.015
			l0.151-0.016l0.137-0.023l0.129-0.023l0.121-0.029l0.123-0.038l0.114-0.037l0.113-0.047l0.122-0.044l0.12-0.062l0.123-0.06
			l0.303-1.868l-0.22,0.13l-0.213,0.12l-0.219,0.092l-0.214,0.084l-0.205,0.068l-0.212,0.045l-0.206,0.038l-0.205,0.03l-0.205,0.016
			l-0.197,0.008h-0.206l-0.197-0.008l-0.197-0.016l-0.198-0.022l-0.19-0.023l-0.197-0.03l-0.152-0.03l-0.151-0.054l-0.151-0.066
			l-0.138-0.085l-0.136-0.091l-0.123-0.112l-0.113-0.114l-0.106-0.131l-0.09-0.128l-0.083-0.144l-0.062-0.138L58.57,41.85
			l-0.03-0.145l-0.015-0.145l0.006-0.128l0.019-0.099h4.924l0.038-0.463l0.115-0.639l0.053-0.577L63.672,39.14z M61.614,39.838
			h-2.773l0.003-0.006l-0.005-0.001l0.02-0.106l0.031-0.159l0.045-0.152l0.053-0.151l0.069-0.136l0.069-0.13l0.083-0.123
			l0.091-0.113l0.1-0.106l0.097-0.091l0.116-0.083l0.112-0.069l0.13-0.061l0.129-0.044l0.129-0.031l0.136-0.023l0.145-0.008
			l0.137,0.016l0.129,0.023l0.122,0.031l0.121,0.044l0.114,0.061l0.114,0.068l0.1,0.076l0.09,0.091l0.076,0.106l0.077,0.113
			l0.053,0.13l0.053,0.145l0.029,0.151l0.016,0.167l0.009,0.182L61.614,39.838z"/>
	</g>
</g>
<g>
</g>
<g>
</g>
<g>
</g>
<g>
</g>
<g>
</g>
<g>
</g>
<g>
</g>
<g>
</g>
<g>
</g>
<g>
</g>
<g>
</g>
<g>
</g>
<g>
</g>
<g>
</g>
<g>
</g>
</svg>
