<?xml version="1.0" encoding="utf-8"?>
<!-- Generator: Adobe Illustrator 16.0.0, SVG Export Plug-In . SVG Version: 6.00 Build 0)  -->
<!DOCTYPE svg PUBLIC "-//W3C//DTD SVG 1.1//EN" "http://www.w3.org/Graphics/SVG/1.1/DTD/svg11.dtd">
<svg version="1.1" id="Layer_1" xmlns="http://www.w3.org/2000/svg" xmlns:xlink="http://www.w3.org/1999/xlink" x="0px" y="0px"
	 width="125.43px" height="78.394px" viewBox="0 0 125.43 78.394" enable-background="new 0 0 125.43 78.394" xml:space="preserve">
<g>
	<path fill="#F4F4F4" d="M125.43,74.212c0,2.311-1.871,4.182-4.18,4.182H4.181C1.872,78.394,0,76.522,0,74.212V4.181
		C0,1.871,1.872,0,4.181,0H121.25c2.309,0,4.18,1.871,4.18,4.181V74.212z"/>
	<g>
		<path fill="#336699" d="M86.871,34.961c-0.794-0.441-2.033-0.666-3.731-0.666c-0.839,0-1.681,0.067-2.528,0.199
			c-0.621,0.094-0.685,0.11-1.07,0.193c-0.794,0.174-0.918,0.968-0.918,0.968l-0.254,1.05c-0.145,0.67,0.237,0.642,0.406,0.59
			c0.348-0.104,0.535-0.209,1.243-0.37c0.677-0.152,1.39-0.268,1.959-0.263c0.836,0,1.472,0.092,1.895,0.268
			c0.422,0.185,0.632,0.498,0.632,0.947c0.002,0.107,0.004,0.208-0.034,0.296c-0.035,0.083-0.102,0.162-0.303,0.189
			c-1.191,0.07-2.047,0.179-3.079,0.331c-1.016,0.143-1.906,0.388-2.65,0.728c-0.793,0.352-1.387,0.822-1.796,1.419
			c-0.397,0.6-0.598,1.325-0.6,2.181c0,0.808,0.29,1.467,0.853,1.979c0.568,0.506,1.309,0.755,2.203,0.755
			c0.559-0.004,0.996-0.044,1.309-0.123c0.311-0.078,0.649-0.188,1.007-0.343c0.267-0.113,0.556-0.273,0.859-0.477
			c0.306-0.203,0.517-0.348,0.788-0.525l0.01,0.016l-0.077,0.338c-0.001,0.003-0.005,0.005-0.005,0.007l0.003,0.007
			c-0.089,0.404,0.156,0.74,0.557,0.783l0.006,0.006h0.034l0.003,0.002c0.266,0,1.179,0,1.606-0.002h0.297
			c0.02,0,0.022-0.006,0.03-0.012c0.408-0.05,0.802-0.383,0.895-0.784l1.524-6.58c0.034-0.155,0.062-0.333,0.078-0.541
			c0.02-0.208,0.043-0.378,0.037-0.502C88.061,36.093,87.66,35.404,86.871,34.961z M83.176,42.804
			c-0.26,0.162-0.533,0.303-0.82,0.423c-0.386,0.154-0.75,0.236-1.088,0.236c-0.521,0-0.919-0.074-1.188-0.23
			c-0.271-0.149-0.411-0.408-0.407-0.778c0-0.427,0.1-0.76,0.303-1.02c0.206-0.25,0.512-0.452,0.891-0.603
			c0.378-0.128,0.842-0.233,1.376-0.308c0.478-0.061,1.419-0.169,1.538-0.17c0.121,0,0.201-0.067,0.148,0.253
			c-0.024,0.14-0.297,1.256-0.422,1.763C83.47,42.522,83.268,42.744,83.176,42.804z"/>
		<path fill="#003366" d="M60.636,34.44c-0.445,0-1.033,0.362-1.311,0.799c0,0-2.993,5.13-3.286,5.642
			c-0.16,0.276-0.322,0.102-0.351-0.001c-0.02-0.125-0.924-5.607-0.924-5.607c-0.103-0.441-0.564-0.82-1.141-0.818l-1.864,0.003
			c-0.451,0-0.732,0.359-0.632,0.795c0,0,1.426,8.084,1.705,9.985c0.139,1.051-0.014,1.238-0.014,1.238l-1.85,3.224
			c-0.271,0.436-0.122,0.795,0.326,0.795l2.162-0.001c0.447,0,1.04-0.356,1.309-0.795l8.316-14.068c0,0,0.796-1.201,0.062-1.191
			C62.644,34.449,60.636,34.44,60.636,34.44"/>
		<path fill="#003366" d="M34.38,37.301c-0.631,0.46-1.502,0.691-2.635,0.691h-0.512c-0.451,0-0.736-0.358-0.635-0.798l0.628-2.708
			c0.095-0.436,0.544-0.799,0.997-0.794l0.683-0.005c0.798,0,1.404,0.136,1.815,0.409c0.403,0.264,0.608,0.681,0.6,1.243
			C35.332,36.184,35.011,36.838,34.38,37.301 M38.889,33.125c-0.26-0.506-0.648-0.917-1.146-1.227
			c-0.514-0.319-1.115-0.537-1.812-0.67c-0.703-0.125-1.523-0.186-2.465-0.196l-4.358,0.004c-0.454,0.006-0.896,0.36-1.002,0.795
			L25.167,44.61c-0.102,0.436,0.181,0.797,0.633,0.797h2.09c0.449,0,0.898-0.352,0.998-0.797l0.72-3.102
			c0.096-0.434,0.543-0.793,0.996-0.793H31.2c2.554-0.003,4.535-0.525,5.958-1.571c1.422-1.043,2.132-2.426,2.129-4.138
			C39.29,34.256,39.16,33.628,38.889,33.125"/>
		<path fill="#336699" d="M72.291,37.352c-0.626,0.456-1.504,0.684-2.635,0.684h-0.519c-0.45,0.004-0.739-0.359-0.634-0.794
			l0.627-2.712c0.094-0.43,0.549-0.795,0.992-0.791l0.686-0.004c0.803,0.004,1.402,0.139,1.816,0.404
			c0.406,0.271,0.603,0.688,0.605,1.246C73.232,36.233,72.918,36.887,72.291,37.352 M76.797,33.171
			c-0.261-0.505-0.652-0.914-1.149-1.23c-0.51-0.317-1.114-0.538-1.815-0.667c-0.692-0.122-1.518-0.191-2.456-0.193l-4.368,0.001
			c-0.451,0.008-0.891,0.362-0.996,0.797l-2.936,12.78c-0.107,0.436,0.184,0.798,0.626,0.795l2.097-0.003
			c0.443,0.003,0.896-0.356,1.002-0.792l0.708-3.1c0.099-0.436,0.552-0.8,1.003-0.793h0.596c2.558,0,4.541-0.525,5.96-1.572
			c1.416-1.051,2.128-2.429,2.128-4.143C77.191,34.303,77.063,33.673,76.797,33.171"/>
		<path fill="#003366" d="M48.952,34.951c-0.793-0.442-2.032-0.666-3.729-0.666c-0.839,0-1.682,0.066-2.529,0.198
			c-0.622,0.096-0.684,0.112-1.071,0.195c-0.793,0.174-0.916,0.968-0.916,0.968l-0.255,1.048c-0.146,0.671,0.239,0.644,0.409,0.591
			c0.345-0.104,0.534-0.207,1.241-0.368c0.674-0.154,1.389-0.268,1.959-0.264c0.835,0,1.471,0.091,1.894,0.267
			c0.422,0.185,0.631,0.5,0.631,0.948c0.003,0.106,0.006,0.208-0.033,0.294c-0.035,0.084-0.102,0.163-0.302,0.189
			c-1.192,0.072-2.046,0.181-3.08,0.331c-1.018,0.143-1.906,0.389-2.65,0.729c-0.793,0.353-1.385,0.823-1.795,1.42
			c-0.399,0.6-0.599,1.324-0.599,2.18c0,0.809,0.29,1.467,0.852,1.979c0.569,0.505,1.309,0.755,2.202,0.755
			c0.56-0.004,0.996-0.045,1.311-0.123c0.309-0.079,0.648-0.189,1.005-0.344c0.268-0.112,0.556-0.274,0.86-0.477
			s0.517-0.347,0.787-0.524l0.009,0.016l-0.076,0.336c0,0.004-0.004,0.006-0.004,0.01l0.003,0.006
			c-0.088,0.405,0.155,0.741,0.556,0.78l0.005,0.008h0.036l0.001,0.005c0.267,0,1.18-0.003,1.606-0.005h0.299
			c0.021,0,0.022-0.007,0.029-0.011c0.409-0.053,0.801-0.383,0.895-0.783l1.525-6.583c0.034-0.153,0.063-0.332,0.078-0.539
			c0.021-0.208,0.043-0.379,0.036-0.501C50.144,36.083,49.743,35.394,48.952,34.951z M45.259,42.794
			c-0.259,0.164-0.533,0.303-0.821,0.422c-0.384,0.154-0.752,0.236-1.089,0.236c-0.517,0-0.918-0.073-1.188-0.229
			c-0.27-0.149-0.411-0.408-0.407-0.778c0-0.428,0.1-0.76,0.305-1.02c0.205-0.252,0.509-0.453,0.888-0.603
			c0.378-0.129,0.843-0.232,1.378-0.309c0.476-0.061,1.417-0.167,1.539-0.169c0.119,0,0.2-0.067,0.146,0.252
			c-0.024,0.141-0.295,1.257-0.421,1.764C45.552,42.514,45.35,42.734,45.259,42.794z"/>
		<g>
			<g>
				<path fill="#336699" d="M94.069,31.186h-1.868c-0.001,0-0.002,0-0.002,0l-0.002,0c-0.421,0-0.838,0.318-0.97,0.723
					c-0.009,0.025-0.026,0.046-0.032,0.072c0,0-0.038,0.172-0.103,0.467l-2.58,11.698c-0.062,0.275-0.104,0.455-0.116,0.501
					l0.006,0.008c-0.086,0.402,0.156,0.729,0.551,0.771l0.012,0.017h1.939c0.421,0,0.844-0.324,0.971-0.73
					c0.008-0.023,0.023-0.042,0.029-0.065l2.801-12.667l-0.004-0.001C94.795,31.546,94.517,31.186,94.069,31.186z"/>
			</g>
		</g>
		<g>
			<path fill="#336699" d="M96.904,33.765c-0.064,0.017-0.133,0.031-0.209,0.041c-0.076,0.012-0.145,0.018-0.203,0.018
				c-0.208,0-0.366-0.056-0.473-0.167c-0.107-0.112-0.162-0.291-0.162-0.537v-1.081h-0.232v-0.288h0.232v-0.583h0.342v0.583h0.705
				v0.288h-0.705v0.926c0,0.106,0.004,0.189,0.006,0.249c0.006,0.062,0.022,0.117,0.052,0.169c0.026,0.049,0.063,0.083,0.11,0.106
				c0.047,0.022,0.119,0.034,0.214,0.034c0.056,0,0.114-0.009,0.175-0.025c0.06-0.015,0.104-0.03,0.131-0.041h0.018V33.765z"/>
			<path fill="#336699" d="M100.285,33.784h-0.344v-1.158c0-0.086-0.003-0.171-0.012-0.253c-0.008-0.081-0.024-0.146-0.051-0.195
				c-0.027-0.052-0.066-0.091-0.12-0.117c-0.052-0.027-0.127-0.041-0.225-0.041c-0.097,0-0.191,0.024-0.287,0.073
				c-0.097,0.046-0.191,0.108-0.287,0.182c0.003,0.028,0.005,0.06,0.007,0.098c0.004,0.037,0.006,0.073,0.006,0.109v1.302h-0.342
				v-1.158c0-0.089-0.006-0.175-0.013-0.255c-0.008-0.082-0.025-0.146-0.05-0.193c-0.029-0.053-0.068-0.092-0.121-0.119
				c-0.053-0.025-0.126-0.039-0.225-0.039c-0.094,0-0.188,0.023-0.283,0.07c-0.093,0.045-0.186,0.104-0.281,0.175v1.519h-0.341
				v-2.033h0.341v0.225c0.108-0.087,0.215-0.157,0.322-0.206c0.105-0.05,0.217-0.075,0.339-0.075c0.137,0,0.255,0.029,0.351,0.087
				c0.097,0.058,0.168,0.139,0.217,0.243c0.137-0.117,0.264-0.202,0.377-0.253c0.115-0.051,0.237-0.078,0.365-0.078
				c0.225,0,0.389,0.068,0.496,0.203c0.105,0.136,0.16,0.326,0.16,0.566V33.784z"/>
		</g>
	</g>
</g>
<g>
</g>
<g>
</g>
<g>
</g>
<g>
</g>
<g>
</g>
<g>
</g>
<g>
</g>
<g>
</g>
<g>
</g>
<g>
</g>
<g>
</g>
<g>
</g>
<g>
</g>
<g>
</g>
<g>
</g>
</svg>
