<?xml version="1.0" encoding="utf-8"?>
<!-- Generator: Adobe Illustrator 16.0.0, SVG Export Plug-In . SVG Version: 6.00 Build 0)  -->
<!DOCTYPE svg PUBLIC "-//W3C//DTD SVG 1.1//EN" "http://www.w3.org/Graphics/SVG/1.1/DTD/svg11.dtd">
<svg version="1.1" id="Layer_1" xmlns="http://www.w3.org/2000/svg" xmlns:xlink="http://www.w3.org/1999/xlink" x="0px" y="0px"
	 width="248.44px" height="64.354px" viewBox="0 0 248.44 64.354" enable-background="new 0 0 248.44 64.354" xml:space="preserve">
<g>
	<g>
		<path fill="#336699" d="M204.087,12.988c-2.625-1.459-6.723-2.199-12.338-2.199c-2.774,0-5.558,0.22-8.36,0.655
			c-2.053,0.313-2.263,0.365-3.538,0.64c-2.626,0.575-3.035,3.199-3.035,3.199l-0.84,3.475c-0.479,2.215,0.785,2.122,1.344,1.951
			c1.148-0.346,1.77-0.691,4.109-1.221c2.238-0.504,4.595-0.888,6.479-0.872c2.764,0,4.865,0.304,6.263,0.885
			c1.396,0.613,2.09,1.647,2.09,3.132c0.006,0.355,0.012,0.684-0.113,0.978c-0.116,0.274-0.335,0.536-1,0.623
			c-3.939,0.233-6.769,0.594-10.181,1.095c-3.358,0.474-6.303,1.281-8.765,2.405c-2.621,1.162-4.584,2.718-5.937,4.691
			c-1.314,1.984-1.978,4.383-1.984,7.211c0,2.669,0.961,4.849,2.82,6.54c1.879,1.674,4.327,2.497,7.284,2.497
			c1.847-0.013,3.293-0.145,4.327-0.407c1.026-0.259,2.146-0.624,3.328-1.134c0.882-0.375,1.838-0.902,2.842-1.575
			c1.012-0.672,1.708-1.15,2.605-1.735l0.032,0.051l-0.255,1.116c-0.003,0.009-0.016,0.017-0.016,0.023l0.01,0.021
			c-0.294,1.337,0.516,2.448,1.84,2.592l0.02,0.017h0.113l0.009,0.009c0.879,0,3.898,0,5.312-0.009h0.982
			c0.063,0,0.074-0.017,0.101-0.037c1.348-0.166,2.65-1.268,2.957-2.593l5.04-21.756c0.112-0.514,0.207-1.102,0.259-1.786
			c0.064-0.688,0.142-1.253,0.122-1.663C208.02,16.73,206.698,14.451,204.087,12.988z M191.87,38.92
			c-0.859,0.535-1.765,1.001-2.712,1.396c-1.276,0.512-2.481,0.783-3.598,0.783c-1.722,0-3.039-0.246-3.931-0.763
			c-0.894-0.494-1.358-1.35-1.347-2.574c0-1.41,0.331-2.512,1.002-3.37c0.681-0.827,1.692-1.495,2.944-1.992
			c1.25-0.424,2.783-0.772,4.549-1.018c1.58-0.2,4.693-0.562,5.086-0.562c0.401,0,0.666-0.223,0.492,0.836
			c-0.082,0.461-0.982,4.152-1.395,5.827C192.84,37.989,192.172,38.722,191.87,38.92z"/>
		<path fill="#003366" d="M117.344,11.268c-1.471,0-3.416,1.198-4.334,2.641c0,0-9.894,16.964-10.863,18.656
			c-0.529,0.913-1.065,0.336-1.159-0.003c-0.066-0.413-3.056-18.538-3.056-18.538c-0.341-1.459-1.867-2.712-3.773-2.706l-6.164,0.01
			c-1.492,0-2.422,1.188-2.089,2.632c0,0,4.716,26.729,5.636,33.013c0.458,3.474-0.047,4.094-0.047,4.094l-6.116,10.658
			c-0.894,1.44-0.403,2.629,1.079,2.629l7.147-0.003c1.479,0,3.439-1.18,4.327-2.63l27.496-46.515c0,0,2.631-3.971,0.205-3.939
			C123.981,11.293,117.344,11.268,117.344,11.268"/>
		<path fill="#003366" d="M30.53,20.725c-2.086,1.521-4.966,2.286-8.713,2.286h-1.693c-1.492,0-2.435-1.185-2.101-2.638l2.078-8.958
			c0.315-1.439,1.8-2.641,3.295-2.622l2.259-0.019c2.64,0,4.644,0.452,6.001,1.353c1.332,0.871,2.012,2.25,1.982,4.11
			C33.678,17.034,32.617,19.198,30.53,20.725 M45.438,6.92c-0.858-1.673-2.143-3.032-3.787-4.058
			c-1.701-1.054-3.687-1.776-5.994-2.215C33.333,0.232,30.622,0.033,27.507,0L13.099,0.013c-1.501,0.02-2.964,1.19-3.313,2.628
			L0.068,44.892c-0.335,1.441,0.597,2.636,2.092,2.636h6.91c1.485,0,2.97-1.161,3.3-2.636l2.379-10.254
			c0.318-1.434,1.797-2.623,3.292-2.623h1.973c8.445-0.009,14.995-1.736,19.698-5.192c4.702-3.448,7.051-8.02,7.041-13.683
			C46.764,10.657,46.334,8.582,45.438,6.92"/>
		<path fill="#336699" d="M155.879,20.896c-2.069,1.505-4.973,2.26-8.712,2.26h-1.714c-1.487,0.013-2.444-1.188-2.096-2.628
			l2.073-8.967c0.31-1.421,1.813-2.628,3.28-2.612l2.267-0.016c2.653,0.016,4.638,0.458,6.005,1.337
			c1.344,0.895,1.993,2.276,2.004,4.117C158.993,17.196,157.952,19.356,155.879,20.896 M170.778,7.071
			c-0.862-1.671-2.157-3.021-3.801-4.068c-1.686-1.049-3.685-1.779-6.002-2.206c-2.29-0.401-5.018-0.632-8.121-0.637l-14.443,0.005
			c-1.492,0.025-2.944,1.196-3.293,2.634l-9.707,42.254c-0.354,1.441,0.608,2.641,2.071,2.63l6.932-0.01
			c1.466,0.01,2.965-1.179,3.313-2.62l2.34-10.248c0.327-1.439,1.825-2.644,3.316-2.621h1.971c8.456,0,15.014-1.738,19.705-5.199
			c4.683-3.475,7.036-8.027,7.036-13.697C172.083,10.815,171.659,8.729,170.778,7.071"/>
		<path fill="#003366" d="M78.712,12.953c-2.622-1.459-6.719-2.199-12.331-2.199c-2.774,0-5.562,0.22-8.361,0.656
			c-2.057,0.316-2.262,0.368-3.542,0.645c-2.623,0.576-3.027,3.2-3.027,3.2l-0.845,3.464c-0.481,2.222,0.79,2.128,1.352,1.953
			c1.142-0.345,1.766-0.68,4.103-1.216c2.229-0.51,4.593-0.885,6.479-0.872c2.762,0,4.863,0.3,6.261,0.884
			c1.396,0.61,2.085,1.65,2.085,3.132c0.01,0.355,0.02,0.691-0.11,0.976c-0.114,0.278-0.335,0.536-0.998,0.626
			c-3.941,0.239-6.764,0.597-10.184,1.091c-3.364,0.472-6.303,1.286-8.764,2.41c-2.624,1.166-4.58,2.722-5.935,4.695
			c-1.32,1.982-1.98,4.378-1.98,7.206c0,2.675,0.958,4.851,2.815,6.542c1.881,1.668,4.329,2.495,7.282,2.495
			c1.851-0.013,3.292-0.148,4.334-0.407c1.021-0.26,2.143-0.625,3.322-1.137c0.885-0.37,1.837-0.907,2.845-1.574
			c1.008-0.669,1.71-1.147,2.603-1.733l0.029,0.051l-0.251,1.111c0,0.013-0.013,0.02-0.013,0.033l0.009,0.018
			c-0.29,1.341,0.514,2.451,1.839,2.581l0.016,0.025h0.118l0.003,0.018c0.883,0,3.901-0.012,5.312-0.018h0.988
			c0.067,0,0.075-0.023,0.097-0.036c1.353-0.174,2.649-1.266,2.958-2.588l5.042-21.768c0.113-0.507,0.209-1.098,0.257-1.779
			c0.068-0.69,0.142-1.252,0.119-1.66C82.651,16.699,81.326,14.419,78.712,12.953z M66.5,38.887
			c-0.855,0.543-1.761,1.001-2.714,1.396c-1.271,0.51-2.486,0.781-3.602,0.781c-1.709,0-3.035-0.243-3.926-0.759
			c-0.891-0.494-1.36-1.35-1.347-2.574c0-1.413,0.33-2.511,1.007-3.372c0.678-0.832,1.682-1.496,2.937-1.991
			c1.251-0.426,2.788-0.768,4.556-1.02c1.574-0.2,4.686-0.552,5.087-0.559c0.394-0.003,0.66-0.226,0.484,0.833
			c-0.081,0.465-0.975,4.155-1.392,5.831C67.469,37.959,66.802,38.69,66.5,38.887z"/>
		<g>
			<g>
				<path fill="#336699" d="M227.887,0.507h-6.177c-0.003,0-0.006,0.001-0.009,0.001l-0.003-0.001c-1.422,0-2.856,1.086-3.259,2.469
					c-0.017,0.054-0.042,0.105-0.056,0.16c0,0-0.13,0.59-0.355,1.623l-8.482,38.463c-0.226,0.999-0.372,1.633-0.416,1.792
					l0.018,0.024c-0.289,1.343,0.516,2.456,1.844,2.581l0.018,0.024h0.223h6.185h0.006c1.422,0,2.872-1.105,3.258-2.49
					c0.014-0.047,0.036-0.092,0.048-0.14l9.261-41.881l-0.011-0.003C230.286,1.698,229.367,0.507,227.887,0.507z"/>
			</g>
		</g>
		<g>
			<path fill="#336699" d="M237.26,9.033c-0.212,0.058-0.438,0.104-0.69,0.136c-0.252,0.039-0.478,0.058-0.671,0.058
				c-0.688,0-1.211-0.187-1.563-0.552C233.981,8.303,233.8,7.712,233.8,6.9V3.327h-0.77V2.375h0.77V0.448h1.13v1.927h2.33v0.953
				h-2.33v3.061c0,0.352,0.013,0.627,0.02,0.823c0.019,0.204,0.073,0.386,0.171,0.561c0.088,0.161,0.209,0.276,0.365,0.352
				c0.154,0.072,0.394,0.111,0.706,0.111c0.184,0,0.378-0.029,0.578-0.084c0.198-0.05,0.346-0.099,0.433-0.135h0.058V9.033z"/>
			<path fill="#336699" d="M248.44,9.097h-1.137V5.268c0-0.284-0.01-0.565-0.038-0.836c-0.027-0.268-0.081-0.481-0.168-0.644
				c-0.092-0.171-0.221-0.302-0.397-0.387c-0.172-0.089-0.42-0.136-0.743-0.136c-0.32,0-0.634,0.079-0.949,0.242
				c-0.32,0.153-0.633,0.357-0.949,0.601c0.01,0.092,0.017,0.198,0.021,0.322c0.014,0.122,0.021,0.241,0.021,0.361v4.307h-1.131
				V5.268c0-0.294-0.019-0.58-0.041-0.842c-0.026-0.27-0.084-0.481-0.165-0.64c-0.097-0.175-0.227-0.304-0.4-0.392
				c-0.175-0.083-0.417-0.129-0.743-0.129c-0.31,0-0.619,0.075-0.936,0.232c-0.308,0.149-0.614,0.342-0.931,0.578v5.022h-1.126
				V2.375h1.126v0.743c0.359-0.288,0.711-0.52,1.066-0.682c0.349-0.165,0.717-0.249,1.119-0.249c0.452,0,0.844,0.096,1.16,0.289
				c0.319,0.193,0.556,0.459,0.717,0.805c0.452-0.388,0.871-0.667,1.246-0.836c0.381-0.169,0.785-0.257,1.208-0.257
				c0.742,0,1.285,0.226,1.639,0.671c0.351,0.449,0.531,1.077,0.531,1.873V9.097z"/>
		</g>
	</g>
</g>
<g>
</g>
<g>
</g>
<g>
</g>
<g>
</g>
<g>
</g>
<g>
</g>
<g>
</g>
<g>
</g>
<g>
</g>
<g>
</g>
<g>
</g>
<g>
</g>
<g>
</g>
<g>
</g>
<g>
</g>
</svg>
