<?xml version="1.0" encoding="utf-8"?>
<!-- Generator: Adobe Illustrator 21.0.2, SVG Export Plug-In . SVG Version: 6.00 Build 0)  -->
<svg version="1.1"
	 id="svg2" xmlns:cc="http://creativecommons.org/ns#" xmlns:dc="http://purl.org/dc/elements/1.1/" xmlns:rdf="http://www.w3.org/1999/02/22-rdf-syntax-ns#" xmlns:svg="http://www.w3.org/2000/svg"
	 xmlns="http://www.w3.org/2000/svg" xmlns:xlink="http://www.w3.org/1999/xlink" x="0px" y="0px" viewBox="0 0 300 105.1"
	 style="enable-background:new 0 0 300 105.1;" xml:space="preserve">
<style type="text/css">
	.st0{clip-path:url(#SVGID_2_);}
	.st1{fill:#D4D4D4;}
</style>
<g id="layer1" transform="translate(-231.27688,-477.67426)">
	<g id="g2993" transform="matrix(1.3053621,0,0,-1.3053621,233.2573,580.78239)">
		<g id="g2995">
			<g>
				<g>
					<defs>
						<rect id="SVGID_1_" x="-79.8" y="-27.2" width="386.4" height="132"/>
					</defs>
					<clipPath id="SVGID_2_">
						<use xlink:href="#SVGID_1_"  style="overflow:visible;"/>
					</clipPath>
					<g id="g2997" class="st0">
						<g id="g3003" transform="translate(162.891,58.847)">
							<path id="path3005" class="st1" d="M0,0c5.1,0,9.3,4.2,9.3,9.3S5.1,18.6,0,18.6s-9.3-4.2-9.3-9.3S-5.1,0,0,0z M-71.3-5
								c-0.4-1.1-3.4-9.6-10.8-18.4v37.8l-19.5-3.9v-68.6H-82v21.2c5.6-8.5,8.4-21.2,8.4-21.2h23.3c-2.3,9.6-12.4,27.3-12.4,27.3
								C-53.6-19.3-49.6-7.1-49-5H-71.3z M-20.1-4.3c-17.4-0.6-26.3-8.4-26.3-23.9V-58h19v24.3c0,9.3,1.2,13.3,12.3,13.7v15.5
								C-16.9-4.2-20.1-4.3-20.1-4.3z M-134.2-12.6c-2.4,0.2-7.9,0.5-7.9,5.5c0,6,8,6,10.9,6c5.2,0,12-1.5,16.9-3c0,0,2.7-1,5-1.9
								l0.2-0.1v16.4l-0.3,0.1c-5.7,2-12.4,3.9-24.7,3.9c-21.3,0-28.8-12.4-28.8-23c0-6.1,2.6-20.5,27-22.2c2.1-0.1,7.5-0.4,7.5-5.6
								c0-4.2-4.5-6.7-12-6.7c-8.3,0-16.3,2.1-21.2,4.1V-56c7.3-1.9,15.5-2.9,25.2-2.9c20.8,0,30.1,11.7,30.1,23.4
								C-106.3-22.3-116.7-13.7-134.2-12.6L-134.2-12.6z M-9.4-58.1H9.4v53H-9.4V-58.1z M45,11v-69.1h18.9v72.4
								C63.9,14.4,45,11,45,11z M17.4,11l18.9,3.4V-58H17.4V11"/>
						</g>
					</g>
				</g>
			</g>
		</g>
	</g>
</g>
</svg>
