<?xml version="1.0" encoding="UTF-8" standalone="no"?>
<!-- Created with Inkscape (http://www.inkscape.org/) -->

<svg
   xmlns:dc="http://purl.org/dc/elements/1.1/"
   xmlns:cc="http://creativecommons.org/ns#"
   xmlns:rdf="http://www.w3.org/1999/02/22-rdf-syntax-ns#"
   xmlns:svg="http://www.w3.org/2000/svg"
   xmlns="http://www.w3.org/2000/svg"
   version="1.1"
   width="300"
   height="105.08855"
   id="svg2">
  <defs
     id="defs4">
    <clipPath
       id="clipPath2999">
      <path
         d="m 0.014999,77.456 226.757001,0 0,-77.441 -226.757001,0 0,77.441 z"
         id="path3001" />
    </clipPath>
  </defs>
  <metadata
     id="metadata7">
    <rdf:RDF>
      <cc:Work
         rdf:about="">
        <dc:format>image/svg+xml</dc:format>
        <dc:type
           rdf:resource="http://purl.org/dc/dcmitype/StillImage" />
        <dc:title></dc:title>
      </cc:Work>
    </rdf:RDF>
  </metadata>
  <g
     transform="translate(-231.27688,-477.67426)"
     id="layer1">
    <g
       transform="matrix(1.3053621,0,0,-1.3053621,233.2573,580.78239)"
       id="g2993">
      <g
         id="g2995">
        <g
           clip-path="url(#clipPath2999)"
           id="g2997">
          <g
             transform="translate(162.891,58.847)"
             id="g3003">
            <path
               d="m 0,0 c 5.141,0 9.308,4.165 9.308,9.302 0,5.138 -4.167,9.307 -9.308,9.307 -5.135,0 -9.3,-4.169 -9.3,-9.307 C -9.3,4.165 -5.135,0 0,0 z m -71.288,-5.022 c -0.419,-1.056 -3.442,-9.595 -10.753,-18.445 l 0,37.842 -19.48,-3.851 0,-68.59 19.48,0 0,21.202 c 5.642,-8.462 8.428,-21.202 8.428,-21.202 l 23.333,0 c -2.308,9.594 -12.404,27.287 -12.404,27.287 9.061,11.488 13.041,23.728 13.674,25.757 l -22.278,0 z m 51.213,0.715 c -17.448,-0.56 -26.305,-8.388 -26.305,-23.949 l 0,-29.81 19.035,0 0,24.309 c 0,9.319 1.22,13.313 12.277,13.693 l 0,15.484 c -1.861,0.395 -5.007,0.273 -5.007,0.273 z m -114.116,-8.268 c -2.386,0.157 -7.91,0.513 -7.91,5.486 0,6.001 7.953,6.001 10.936,6.001 5.245,0 12.038,-1.549 16.889,-3 0,0 2.706,-0.954 5.008,-1.932 l 0.215,-0.058 0,16.435 -0.294,0.087 c -5.725,2.003 -12.382,3.931 -24.724,3.931 -21.28,0 -28.82,-12.397 -28.82,-23.018 0,-6.122 2.623,-20.53 26.995,-22.192 2.066,-0.127 7.548,-0.442 7.548,-5.582 0,-4.243 -4.488,-6.745 -12.038,-6.745 -8.274,0 -16.3,2.11 -21.175,4.111 l 0,-16.927 c 7.298,-1.913 15.525,-2.869 25.167,-2.869 20.807,0 30.126,11.73 30.126,23.355 0,13.181 -10.428,21.744 -27.923,22.917 z m 124.755,-45.491 18.881,0 0,52.984 -18.881,0 0,-52.984 z m 54.433,69.063 0,-69.063 18.884,0 0,72.441 -18.884,-3.378 z m -27.554,0 18.866,3.378 0,-72.441 -18.866,0 0,69.063"
               id="path3005"
               style="fill:#811963;fill-opacity:1;fill-rule:nonzero;stroke:none" />
          </g>
        </g>
      </g>
    </g>
  </g>
</svg>
