<?xml version="1.0" encoding="utf-8"?>
<!-- Generator: Adobe Illustrator 22.0.1, SVG Export Plug-In . SVG Version: 6.00 Build 0)  -->
<svg version="1.1" id="Layer_1" xmlns="http://www.w3.org/2000/svg" xmlns:xlink="http://www.w3.org/1999/xlink" x="0px" y="0px"
	 viewBox="0 0 600 300" style="enable-background:new 0 0 600 300;" xml:space="preserve">
<style type="text/css">
	.st0{fill:#FFFFFF;}
</style>
<g>
	<path class="st0" d="M67.1,131.6c-0.2-2-0.5-5-0.5-8.4c-5.5-1.1-10.5-1.6-15-1.6c-7.5,0-12.7,1.6-15.5,4.8c-1.4,1.6-1.8,3.2-1.1,5
		c1.1,3.2,7,5.7,17.7,7.7l21.4,4.1c8.2,2.3,14.5,5.5,18.9,9.8c5.7,5.2,8.4,11.1,8.4,18c0,10.2-5.7,18.2-17,23.6
		c-10.2,4.8-22.5,7.3-36.8,7.3c-15.5,0-30.5-2.7-44.8-8L2.6,173c3,1.4,6.1,2.5,9.5,3.4c13.4,3.9,24.1,5.9,32,5.9
		c4.3,0,8.4-0.9,12.3-2.7c4.8-2.3,7.3-5.2,7.3-9.1c0-4.1-3.4-6.8-10.5-8.4l-27.7-5.5c-11.1-3-18.2-8.2-21.1-15.7
		c-1.1-3-1.6-6.4-1.1-10c1.1-8,5.9-14.3,14.5-19.5c8-4.8,18-7.3,30-7.3c12.3,0,24.8,2.3,37.3,7v8.6c-0.2,2-0.9,5-1.6,9.3v0.2
		l-0.7,2.3H67.1z"/>
	<path class="st0" d="M143.5,233.5h-26.1l-6.6-0.7v-17c2.7-0.7,4.8-1.4,6.4-1.6c0,0,0,0,0.2,0v-85.2l-8.2-2v-17
		c2.3-0.5,5-0.7,8.2-0.7h26.4l-0.2,7.5c10.7-6.1,21.4-9.1,32-9.1c11.1,0,20.7,2,28.2,6.4c12.5,7,18.6,17.7,18.6,32.3
		c0,14.3-5,26.6-14.8,36.4c-10.2,10.5-23.4,15.7-39.5,15.7c-8.4,0-16.6-1.8-24.8-5.7C143.3,209.4,143.3,223,143.5,233.5z M143,149.6
		l0.2,21.4c6.1,3,12,4.3,18,4.3c10,0.2,18.2-3.6,24.3-11.1c4.3-5.2,6.4-10.9,6.4-16.8c0-11.1-8.4-19.8-20.5-19.8
		c-3.4,0-7.5,0.7-11.8,1.8c-6.1,2-11.6,4.1-16.4,6.6C143,142.1,143,146.6,143,149.6z"/>
	<path class="st0" d="M306.7,141.2c-4.3-4.1-9.8-6.1-16.4-6.1c-8,0-16.6,3-25.5,9.1c-0.2,2-0.2,3.9-0.2,5.5
		c0,15.2,0.2,31.4,0.5,48.4H239v-0.2c-2.5,0-4.5-0.2-6.6-0.7v-17c0.2,0,2.5-0.5,6.6-1.6v-49.5l-2-0.5c-1.6-0.2-3.6-0.9-6.1-1.6v-17
		c2.3-0.5,5-0.7,8.2-0.7h26.4c0,3.9,0,8.2-0.2,13.4c11.6-8,23.2-12,34.8-12.5c2.3,0,4.5,0,6.8,0.2V141.2z"/>
	<path class="st0" d="M315.3,111.4c2.7-0.7,6.4-0.9,10.9-0.9h26.1V178l1.8,0.5c1.6,0.2,3.6,0.9,6.1,1.6v17c-2.3,0.5-5,0.7-8,0.7H326
		c0-4.8,0-12,0.2-21.4c0.2-10.7,0.2-17.7,0.2-21.4V131l-5-1.1c-1.6-0.2-3.6-0.9-6.1-1.6V111.4z M353,88.2
		c-1.1,8.4-9.3,15.2-17.7,15.2c-8.2,0-14.1-6.8-12.5-15.2c1.6-8.2,9.5-15,17.7-15C349,73.2,354.6,80,353,88.2z"/>
	<path class="st0" d="M371.9,111.4c2.7-0.7,6.4-0.9,10.9-0.9H409v7.5c6.6-3,13.6-4.5,21.6-4.5c22.7,0,38.9,9.8,45,29.1
		c1.6,5.7,2.3,13,2,21.4c-0.2,5.7-1.1,11.8-2.5,18.9c-0.9,5.2-2.3,10.2-4.1,15h-26.6l0.9-7.7c1.6-6.1,2.5-12.7,2.7-20.2
		c0.2-13.2-1.8-22.5-6.4-27.7c-4.1-4.3-9.1-6.6-15.2-6.6c-4.5,0-10.5,1.4-17.5,4.3v58h-26.4c0-4.8,0-12,0.2-21.4
		c0.2-10.7,0.2-17.7,0.2-21.4V131l-5-1.1c-1.6-0.2-3.6-0.9-6.1-1.6V111.4z"/>
	<path class="st0" d="M540.3,201c-16.1,0-29.3-5.2-39.5-15.7c-9.8-10-14.8-22.3-14.8-36.6c0-14.3,6.1-25.2,18.6-32.3
		c7.5-4.3,17-6.4,28.2-6.4c10.7,0,21.4,3,32,9.1v-11.6h26.4c3.2,0,5.9,0.2,8.2,0.7v17c-0.2,0.2-2.5,0.7-6.4,1.6l-1.8,0.5v49.1
		c0,15-0.7,25.9-2,33c-1.8,10.2-6.8,18.4-15,24.1c-11.6,8-23.9,10.7-37,7.7v-17c2.3,0,5-0.7,8.2-1.8c7.3-2.5,12.3-5.7,14.8-9.5
		c2.5-3.9,4.1-9.5,4.8-17.5C556.7,199.1,548.5,201,540.3,201z M565.3,138.7c-4.8-2.5-10.2-4.5-16.6-6.6c-4.3-1.4-8.2-2-11.6-2
		c-12.5,0-20.7,8.9-20.7,19.8c0,6.1,2,11.6,6.4,16.8c6.1,7.5,14.3,11.4,24.3,11.4c6.1-0.2,12-1.6,18.2-4.5v-17.7V138.7z"/>
</g>
<g>
</g>
<g>
</g>
<g>
</g>
<g>
</g>
<g>
</g>
<g>
</g>
</svg>
