<?xml version="1.0" encoding="utf-8"?>
<!-- Generator: Adobe Illustrator 22.0.1, SVG Export Plug-In . SVG Version: 6.00 Build 0)  -->
<svg version="1.1" id="Layer_1" xmlns="http://www.w3.org/2000/svg" xmlns:xlink="http://www.w3.org/1999/xlink" x="0px" y="0px"
	 viewBox="0 0 600 300" style="enable-background:new 0 0 600 300;" xml:space="preserve">
<style type="text/css">
	.st0{fill:#FFFFFF;}
</style>
<g>
	<path class="st0" d="M60.6,101.4c-1.1,1.1-2.5,1.7-4.2,1.7c-2.4,0-4-0.2-5-0.5c-0.9-0.3-1.8-0.6-2.7-0.9c-0.9-0.3-2-0.6-3.5-0.9
		c-1.4-0.3-3.9-0.5-7.3-0.5c-2.8,0-5.4,0.4-7.9,1.2c-2.5,0.8-4.7,1.9-6.5,3.3c-1.9,1.4-3.3,3.3-4.3,5.4c-1,2.2-1.6,4.7-1.6,7.6
		c0,3.3,0.7,6.1,2.2,8.3c1.5,2.2,3.5,4.1,6,5.7c2.5,1.6,5.3,3,8.5,4.3c3.2,1.2,6.4,2.5,9.6,3.8c3.3,1.3,6.5,2.7,9.7,4.3
		c3.2,1.6,6,3.5,8.5,5.9c2.4,2.4,4.4,5.3,6,8.6c1.6,3.4,2.3,7.4,2.3,12.2c0,5.3-1,10-3,14c-2,4.1-4.8,7.5-8.4,10.3
		c-3.6,2.8-7.7,4.9-12.5,6.4c-4.8,1.5-9.9,2.2-15.4,2.2c-3,0-6.1-0.3-9.2-0.8c-3.2-0.5-6.1-1.3-8.8-2.3c-2.7-1-4.9-2.3-6.6-3.8
		c-1.7-1.5-2.6-3.3-2.6-5.4c0-2.3,0.7-3.8,2.2-4.6c1.5-0.8,2.8-1.2,3.8-1.2c1.9,0,3.5,0.3,4.9,0.9c1.4,0.6,2.8,1.2,4.3,1.9
		c1.5,0.7,3.2,1.3,5.2,1.8c2,0.5,4.4,0.8,7.3,0.8c6.5,0,11.8-1.7,15.8-5.1c4-3.4,6.1-7.8,6.1-13c0-4.9-1.3-8.7-3.9-11.6
		c-2.6-2.8-5.8-5.2-9.8-7.1c-3.9-1.9-8.1-3.6-12.6-5.1s-8.7-3.5-12.6-5.8c-3.9-2.3-7.2-5.3-9.8-9c-2.6-3.7-3.9-8.6-3.9-14.8
		c0-6.4,1.4-11.7,4.3-15.8c2.8-4.1,6.3-7.4,10.3-9.9c4-2.4,8.2-4.1,12.6-5c4.4-0.9,8.1-1.4,11.2-1.4c3.2,0,6.2,0.2,9,0.6
		c2.8,0.4,5.2,1,7.2,1.9c2,0.8,3.6,1.9,4.8,3.1c1.2,1.2,1.8,2.7,1.8,4.3C62.4,99,61.8,100.3,60.6,101.4z"/>
	<path class="st0" d="M96.3,166.3c0.9,4.8,2.5,8.8,4.7,12.3c2.2,3.4,5.2,6.1,9,8c3.8,1.9,8.5,2.9,14.2,2.9c4.3,0,8.4-0.7,12-2.1
		c3.7-1.4,6.8-3.5,9.4-6.3c2.6-2.8,4.6-6.3,6.1-10.5c1.4-4.2,2.2-9.3,2.2-15v-43.8c0-2.2,0.1-4.4,0.3-6.7c0.2-2.3,0.6-4.4,1.1-6.4
		c0.5-1.9,1.2-3.5,2.2-4.8c0.9-1.3,2.1-1.9,3.6-1.9c1.7,0,3,0.6,4,1.8c1,1.2,1.7,2.7,2.2,4.6c0.5,1.9,0.9,4,1,6.4
		c0.2,2.4,0.2,4.8,0.2,7.1v41.4c0,10.4-1.4,18.9-4.3,25.4c-2.8,6.5-6.5,11.6-10.9,15.3c-4.4,3.7-9.2,6.2-14.4,7.5
		c-5.2,1.3-10.2,2-15,2c-5,0-10-0.7-15.1-2.1c-5.1-1.4-9.8-3.9-14-7.5c-4.2-3.6-7.7-8.6-10.4-14.8c-2.7-6.3-4-14.2-4-24v-43.3
		c0-2.6,0.1-5.1,0.2-7.4c0.2-2.4,0.5-4.5,1.1-6.4c0.6-1.9,1.3-3.4,2.3-4.5c1-1.1,2.3-1.7,4-1.7c1.3,0,2.5,0.6,3.4,1.9
		c0.9,1.3,1.7,2.9,2.2,4.9c0.5,2,0.9,4.1,1.1,6.4c0.2,2.3,0.3,4.6,0.3,6.7v38.9C94.9,156.3,95.4,161.5,96.3,166.3z"/>
	<path class="st0" d="M226.6,148.6c1.1,2.7,2.3,5.1,3.6,7.3c1.3,2.2,2.7,4,4.3,5.4c1.6,1.4,3.3,2.1,5.2,2.1c1.7,0,3.2-0.6,4.6-1.8
		c1.4-1.2,2.7-2.8,4-4.8c1.2-2,2.4-4.4,3.5-7.1c1.1-2.7,2.2-5.5,3.3-8.5l10.4-28.1c1.2-3.5,2.4-6.6,3.6-9.2c1.1-2.6,2.5-4.7,4-6.4
		c1.5-1.7,3.3-3,5.3-3.8c2-0.8,4.6-1.2,7.7-1.2c2.3,0,4.2,0.2,5.9,0.7c1.7,0.5,3,1.4,4.1,2.8c1.1,1.4,1.9,3.3,2.3,5.8
		s0.7,5.7,0.7,9.6v79.1c0,0.5-0.1,1.3-0.2,2.5c-0.1,1.1-0.4,2.3-0.9,3.4c-0.5,1.1-1.1,2.1-1.9,3c-0.8,0.9-2,1.3-3.4,1.3
		c-1.4,0-2.6-0.5-3.6-1.4c-0.9-0.9-1.6-2.1-2.1-3.4c-0.5-1.3-0.8-2.7-0.9-4c-0.2-1.3-0.2-2.4-0.2-3.2v-35.2c0-9.6-0.6-16.5-1.7-20.7
		c-1.1-4.2-3.1-6.3-5.7-6.3c-1.3,0-2.7,0.7-4,2c-1.3,1.3-2.6,3.2-3.8,5.5s-2.5,5.1-3.8,8.3c-1.3,3.2-2.6,6.6-4,10.2l-7.1,19.9
		c-1.3,3.7-2.6,7.3-3.7,10.7c-1.1,3.4-2.3,6.4-3.5,9.1c-1.2,2.6-2.5,4.8-3.9,6.4c-1.4,1.6-3,2.4-4.9,2.4c-2.1,0-3.9-0.9-5.4-2.6
		c-1.6-1.8-2.9-4-4.2-6.8c-1.2-2.8-2.4-5.9-3.5-9.4c-1.1-3.5-2.2-6.9-3.5-10.3l-7.4-20.6c-1-2.9-2.1-5.8-3.3-8.8
		c-1.1-2.9-2.4-5.6-3.6-7.9c-1.3-2.3-2.7-4.2-4.1-5.7c-1.4-1.4-3-2.2-4.7-2.2c-2.5,0-4.3,2.4-5.4,7.3c-1.1,4.9-1.6,11.7-1.6,20.5
		v36.1c0,2.4-0.6,4.7-1.9,6.8c-1.2,2.2-2.8,3.3-4.7,3.3c-1.4,0-2.6-0.5-3.5-1.4c-0.9-0.9-1.6-2.1-2.1-3.5c-0.5-1.4-0.9-3-1-4.7
		c-0.2-1.8-0.2-3.4-0.2-5v-78.5c0-1,0.1-2.4,0.3-4.2c0.2-1.8,0.7-3.4,1.6-5c0.9-1.6,2.2-3,3.9-4.2c1.7-1.2,4.1-1.8,7.1-1.8
		c3.1,0,5.7,0.3,7.7,1c2,0.7,3.7,1.7,5.2,3.2c1.7,1.7,3.1,3.9,4.3,6.6c1.2,2.7,2.6,6.3,4.2,10.6l9.6,27
		C224.5,143.3,225.5,145.9,226.6,148.6z"/>
	<path class="st0" d="M358,148.6c1.1,2.7,2.3,5.1,3.6,7.3c1.3,2.2,2.7,4,4.3,5.4c1.6,1.4,3.3,2.1,5.2,2.1c1.7,0,3.2-0.6,4.6-1.8
		c1.4-1.2,2.7-2.8,4-4.8c1.2-2,2.4-4.4,3.5-7.1c1.1-2.7,2.2-5.5,3.3-8.5l10.4-28.1c1.2-3.5,2.4-6.6,3.6-9.2c1.1-2.6,2.5-4.7,4-6.4
		c1.5-1.7,3.3-3,5.3-3.8c2-0.8,4.6-1.2,7.7-1.2c2.3,0,4.2,0.2,5.9,0.7c1.7,0.5,3,1.4,4.1,2.8c1.1,1.4,1.9,3.3,2.3,5.8
		s0.7,5.7,0.7,9.6v79.1c0,0.5-0.1,1.3-0.2,2.5c-0.1,1.1-0.4,2.3-0.9,3.4c-0.5,1.1-1.1,2.1-1.9,3c-0.8,0.9-2,1.3-3.4,1.3
		c-1.4,0-2.6-0.5-3.6-1.4s-1.6-2.1-2.1-3.4c-0.5-1.3-0.8-2.7-0.9-4c-0.2-1.3-0.2-2.4-0.2-3.2v-35.2c0-9.6-0.6-16.5-1.7-20.7
		c-1.1-4.2-3.1-6.3-5.7-6.3c-1.3,0-2.7,0.7-4,2c-1.3,1.3-2.6,3.2-3.8,5.5s-2.5,5.1-3.8,8.3c-1.3,3.2-2.6,6.6-4,10.2l-7.1,19.9
		c-1.3,3.7-2.6,7.3-3.7,10.7c-1.1,3.4-2.3,6.4-3.5,9.1c-1.2,2.6-2.5,4.8-3.9,6.4c-1.4,1.6-3,2.4-4.9,2.4c-2.1,0-3.9-0.9-5.4-2.6
		c-1.6-1.8-2.9-4-4.2-6.8c-1.2-2.8-2.4-5.9-3.5-9.4c-1.1-3.5-2.2-6.9-3.5-10.3l-7.4-20.6c-1-2.9-2.1-5.8-3.3-8.8
		c-1.1-2.9-2.4-5.6-3.6-7.9c-1.3-2.3-2.7-4.2-4.1-5.7c-1.4-1.4-3-2.2-4.7-2.2c-2.5,0-4.3,2.4-5.4,7.3c-1.1,4.9-1.6,11.7-1.6,20.5
		v36.1c0,2.4-0.6,4.7-1.9,6.8c-1.2,2.2-2.8,3.3-4.7,3.3c-1.4,0-2.6-0.5-3.5-1.4c-0.9-0.9-1.6-2.1-2.1-3.5c-0.5-1.4-0.9-3-1-4.7
		c-0.2-1.8-0.2-3.4-0.2-5v-78.5c0-1,0.1-2.4,0.3-4.2c0.2-1.8,0.7-3.4,1.6-5c0.9-1.6,2.2-3,3.9-4.2c1.7-1.2,4.1-1.8,7.1-1.8
		c3.1,0,5.7,0.3,7.7,1c2,0.7,3.7,1.7,5.2,3.2c1.7,1.7,3.1,3.9,4.3,6.6c1.2,2.7,2.6,6.3,4.2,10.6l9.6,27
		C355.9,143.3,356.9,145.9,358,148.6z"/>
	<path class="st0" d="M508.8,101.6c-1.1,0.8-2.6,1.4-4.4,1.9c-1.9,0.5-4.1,0.8-6.6,0.9c-2.5,0.1-5.3,0.2-8.1,0.2h-10.1
		c-3.2,0-6.2,0.2-8.8,0.5c-2.7,0.3-5,1.1-6.9,2.3c-1.9,1.2-3.4,3.1-4.4,5.5c-1,2.4-1.6,5.7-1.6,9.9c0,3.7,0.6,6.7,1.8,8.8
		c1.2,2.2,2.8,3.8,4.7,4.9c2,1.1,4.2,1.8,6.7,2c2.5,0.3,5.1,0.4,7.8,0.4h11.6c5.2,0,9.2,0.4,12.2,1.1c2.9,0.7,4.4,2.5,4.4,5.3
		c0,1.3-0.4,2.4-1.3,3.2c-0.9,0.8-2.1,1.3-3.6,1.7c-1.6,0.4-3.3,0.6-5.4,0.7c-2,0.1-4.1,0.2-6.3,0.2h-12.9c-3.1,0-5.9,0.2-8.4,0.5
		c-2.5,0.4-4.6,1.2-6.4,2.6c-1.8,1.3-3.1,3.4-4,6.1c-0.9,2.7-1.4,6.4-1.4,11c0,3.7,0.5,6.8,1.6,9.2c1.1,2.4,2.5,4.2,4.3,5.5
		c1.8,1.3,4,2.2,6.4,2.6c2.5,0.5,5.1,0.7,7.9,0.7h17.5c5.3,0,9.6,0.4,12.9,1.3c3.3,0.9,5,2.7,5,5.5c0,2.3-1.6,3.8-4.9,4.4
		c-3.3,0.7-7.9,1-14,1h-31.3c-4.6,0-8.1-0.2-10.8-0.5c-2.6-0.4-4.7-1.3-6.1-2.7c-1.3-1.3-2.2-3.2-2.7-5.5c-0.5-2.3-0.7-5.5-0.7-9.4
		v-70c0-4.4,0.2-8.2,0.5-11.2c0.4-3,1.4-5.3,3-7c1.2-1.1,2.9-1.9,5.1-2.3c2.2-0.4,5.1-0.6,8.7-0.6h36c5,0,8.6,0.4,10.9,1.3
		c2.3,0.9,3.5,2.5,3.5,4.9C510.4,99.8,509.9,100.9,508.8,101.6z"/>
	<path class="st0" d="M597.7,131.4c-0.9,2.6-2,5-3.3,7c-1.3,2-2.8,3.8-4.3,5.4c-1.6,1.6-3,3.1-4.3,4.6c-1.3,1.5-2.5,3.1-3.3,4.7
		c-0.9,1.7-1.3,3.5-1.3,5.6c0,2.7,0.6,5.6,1.9,8.8c1.3,3.2,2.9,6.1,4.7,8.9l7.3,11.5c0.8,1.1,1.6,2.6,2.3,4.4
		c0.7,1.8,1.1,3.5,1.1,5.2c0,1.3-0.4,2.5-1.1,3.3c-0.7,0.9-2.1,1.3-4.2,1.3c-2.7,0-5.2-1.1-7.4-3.4c-2.3-2.3-4.4-5.5-6.5-9.6
		l-8.1-15.5c-1.1-2.1-2.4-4.2-3.7-6.4c-1.3-2.2-2.9-4.2-4.6-6.1c-1.7-1.8-3.6-3.3-5.7-4.5c-2.1-1.2-4.4-1.8-7-1.8
		c-3.2,0-5.8,0.7-7.7,2.2c-1.9,1.4-3.4,3.3-4.3,5.6c-1,2.3-1.6,4.7-1.9,7.4c-0.3,2.6-0.5,5.1-0.5,7.5v7.4c0,6.2-0.6,10.4-1.8,12.7
		c-1.2,2.3-2.9,3.4-5,3.4c-2.1,0-3.8-1.1-5.3-3.4c-1.4-2.3-2.2-5.7-2.2-10.4V112c0-4.7,0.3-8.3,0.9-10.9c0.6-2.6,1.6-4.6,2.9-6
		c1.3-1.3,3-2.2,5-2.5c2-0.3,4.3-0.5,7-0.5h13.5c3.2,0,6.6,0.1,10.2,0.2c3.6,0.2,7.2,0.6,10.8,1.2c3.6,0.7,7,1.7,10.2,2.9
		c3.3,1.3,6.2,3.1,8.7,5.3c2.5,2.2,4.5,5,6.1,8.3c1.5,3.3,2.2,7.3,2.2,11.9C599,125.7,598.6,128.8,597.7,131.4z M540.7,137.4
		c3.2,3.3,8,5,14.5,5c0.7,0,1.9-0.1,3.6-0.2c1.7-0.1,3.5-0.4,5.5-0.9c2-0.5,4.1-1.1,6.4-1.9c2.2-0.8,4.2-2,6.1-3.4
		c1.8-1.4,3.3-3.2,4.4-5.4c1.1-2.1,1.7-4.7,1.7-7.8c0-3.2-0.6-5.9-1.8-8.1c-1.2-2.2-2.7-4.1-4.5-5.5c-1.8-1.4-3.8-2.6-6-3.4
		c-2.2-0.8-4.2-1.4-6.1-1.8c-1.9-0.4-3.6-0.6-5-0.6c-1.4-0.1-2.2-0.1-2.6-0.1c-7.4,0-12.8,1.5-16.1,4.5c-3.3,3-4.9,8.4-4.9,16.3
		C536,129.6,537.6,134.1,540.7,137.4z"/>
</g>
<g>
</g>
<g>
</g>
<g>
</g>
<g>
</g>
<g>
</g>
<g>
</g>
</svg>
