<?xml version="1.0" encoding="utf-8"?>
<!-- Generator: Adobe Illustrator 16.0.0, SVG Export Plug-In . SVG Version: 6.00 Build 0)  -->
<!DOCTYPE svg PUBLIC "-//W3C//DTD SVG 1.1//EN" "http://www.w3.org/Graphics/SVG/1.1/DTD/svg11.dtd">
<svg version="1.1" id="Layer_1" xmlns="http://www.w3.org/2000/svg" xmlns:xlink="http://www.w3.org/1999/xlink" x="0px" y="0px"
	 width="125.43px" height="78.393px" viewBox="0 0 125.43 78.393" enable-background="new 0 0 125.43 78.393" xml:space="preserve">
<g>
	<path fill="#F4F4F4" d="M125.43,74.213c0,2.309-1.871,4.18-4.18,4.18H4.181C1.872,78.393,0,76.522,0,74.213V4.182
		C0,1.872,1.872,0,4.181,0H121.25c2.309,0,4.18,1.872,4.18,4.182V74.213z"/>
	<g>
		<g>
			<polygon fill="#0066B2" points="57.721,50.972 51.595,50.972 55.424,27.438 61.552,27.438 			"/>
			<path fill="#0066B2" d="M46.439,27.438l-5.841,16.187l-0.692-3.485v0.001l-2.062-10.583c0,0-0.248-2.119-2.906-2.119h-9.657
				l-0.113,0.399c0,0,2.953,0.613,6.41,2.69l5.323,20.446h6.384l9.749-23.535H46.439z"/>
			<path fill="#0066B2" d="M94.635,50.972h5.626l-4.905-23.535H90.43c-2.274,0-2.829,1.753-2.829,1.753l-9.138,21.781h6.387
				l1.277-3.495h7.789L94.635,50.972z M87.893,42.648l3.219-8.809l1.812,8.809H87.893z"/>
			<path fill="#0066B2" d="M78.941,33.097l0.875-5.054c0,0-2.699-1.025-5.511-1.025c-3.042,0-10.263,1.329-10.263,7.791
				c0,6.08,8.477,6.156,8.477,9.348c0,3.193-7.602,2.623-10.112,0.609l-0.911,5.282c0,0,2.735,1.33,6.917,1.33
				c4.18,0,10.49-2.165,10.49-8.057c0-6.119-8.552-6.69-8.552-9.35C70.353,31.31,76.32,31.652,78.941,33.097z"/>
		</g>
		<path fill="#F9A533" d="M39.906,40.14l-2.062-10.583c0,0-0.248-2.119-2.906-2.119h-9.657l-0.113,0.399
			c0,0,4.643,0.962,9.094,4.565C38.521,35.847,39.906,40.14,39.906,40.14z"/>
	</g>
</g>
<g>
</g>
<g>
</g>
<g>
</g>
<g>
</g>
<g>
</g>
<g>
</g>
<g>
</g>
<g>
</g>
<g>
</g>
<g>
</g>
<g>
</g>
<g>
</g>
<g>
</g>
<g>
</g>
<g>
</g>
</svg>
