<?xml version="1.0" encoding="utf-8"?>
<!-- Generator: Adobe Illustrator 22.0.1, SVG Export Plug-In . SVG Version: 6.00 Build 0)  -->
<svg version="1.1" id="Layer_1" xmlns="http://www.w3.org/2000/svg" xmlns:xlink="http://www.w3.org/1999/xlink" x="0px" y="0px"
	 viewBox="0 0 600 300" style="enable-background:new 0 0 600 300;" xml:space="preserve">
<style type="text/css">
	.st0{fill:#FFFFFF;}
</style>
<g>
	<path class="st0" d="M73.3,90.5c-0.8,5.9-1.4,11.1-1.7,15.8c-0.3,4.7-0.5,9.2-0.5,13.5c0,4.1,0.1,8.2,0.4,12.2
		c0.3,4,0.7,8.4,1.2,13c2.6-5.7,5.2-11.6,7.7-17.8s5.1-12.6,7.6-19.2c2.5,7.4,5,14.2,7.7,20.5c2.6,6.3,5.4,12.4,8.4,18.2
		c0.3-4.3,0.6-8.5,0.8-12.6c0.2-4.1,0.3-8.3,0.3-12.7c0-3.9-0.1-8-0.4-12.3c-0.3-4.3-0.9-8.8-1.7-13.7c4,0.2,8,0.4,11.7,0.7
		c3.8,0.3,7.5,0.4,11.3,0.4c3.3,0,6.6-0.2,9.9-0.5c3.3-0.3,6.7-0.9,10.4-1.8c-5,17.7-8.7,35.9-10.9,54.7c-2.2,18.7-3.6,38-4.1,57.8
		c-4.9-0.9-9.2-1.5-13-1.8c-3.8-0.3-7-0.5-9.7-0.5c-1.9,0-3.5,0.1-4.9,0.2c-1.4,0.1-2.5,0.2-3.4,0.4c-1.1,0.2-1.9,0.3-2.6,0.5
		c-0.6-4.5-1.3-9-1.9-13.4c-0.7-4.5-1.4-8.7-2.2-12.8c-0.8-4.1-1.8-8-2.9-11.6c-1.1-3.6-2.5-6.8-4-9.6c-1.1,3.2-2.1,6.4-2.9,9.7
		c-0.8,3.3-1.5,6.7-2.1,10.3c-0.6,3.6-1,7.4-1.2,11.5c-0.2,4.1-0.4,8.6-0.4,13.5c-3.1-0.4-6-0.6-8.8-0.7c-2.7-0.1-5.3-0.2-7.8-0.2
		c-3,0-5.7,0.1-8,0.2c-2.3,0.2-4.3,0.3-5.9,0.5c-1.9,0.2-3.6,0.5-5,0.7c-0.2-6.6-0.5-13.5-1.1-20.8c-0.5-7.3-1.2-14.5-2-21.8
		c-0.8-7.3-1.7-14.4-2.7-21.4c-1-7-2-13.5-3-19.6c-1-6.1-2-11.6-3-16.4c-1-4.9-1.9-8.8-2.8-11.9c1.2,0.2,2.7,0.4,4.3,0.6
		c1.4,0.1,3.1,0.2,5.1,0.4c2,0.1,4.3,0.2,7,0.2c3.6,0,7.6-0.2,12-0.5C62.9,91.9,67.8,91.3,73.3,90.5z"/>
	<path class="st0" d="M198.7,202.9c-1.1-0.1-2.3-0.2-3.7-0.3c-1.2-0.1-2.7-0.1-4.4-0.2c-1.7-0.1-3.6-0.1-5.8-0.1
		c-4,0-8.7,0.2-14,0.5c-5.3,0.3-11,1-17.2,1.9c1.2-2.4,2.2-5.3,3-8.9c0.8-3.6,1.5-7.4,2-11.5c0.5-4.1,0.9-8.2,1.2-12.4
		c0.3-4.2,0.5-8,0.6-11.5c0.1-3.5,0.2-6.4,0.2-8.9c0-2.4,0-4,0-4.6c-0.1-8.1-0.4-15.7-0.8-22.7c-0.2-3-0.4-6-0.7-9.1
		c-0.3-3.1-0.6-5.9-1-8.6c-0.4-2.7-0.8-5.1-1.3-7.3s-1-3.8-1.6-5.1c5,0.9,9.7,1.5,14,1.8c4.3,0.3,8.2,0.5,11.7,0.5
		c2.2,0,4.3,0,6-0.1c1.8-0.1,3.3-0.2,4.5-0.3c1.5-0.1,2.8-0.3,3.9-0.5c-1.1,5.6-2,12.4-2.8,20.3c-0.7,7.9-1.1,16.4-1.1,25.4
		c0,5.2,0.1,10.4,0.4,15.7c0.2,5.3,0.7,10.6,1.2,15.8c0.6,5.3,1.3,10.4,2.2,15.5C196.3,193.4,197.4,198.3,198.7,202.9z M155.8,69.3
		c0-2.9,0.5-5.6,1.6-8.1c1.1-2.5,2.6-4.7,4.5-6.6c1.9-1.9,4.1-3.4,6.7-4.5c2.6-1.1,5.3-1.6,8.1-1.6c2.9,0,5.6,0.5,8.1,1.6
		c2.5,1.1,4.7,2.6,6.6,4.5c1.9,1.9,3.4,4.1,4.5,6.6c1.1,2.5,1.6,5.2,1.6,8.1c0,2.9-0.5,5.6-1.6,8.1c-1.1,2.6-2.6,4.8-4.5,6.7
		c-1.9,1.9-4.1,3.4-6.6,4.5c-2.5,1.1-5.2,1.6-8.1,1.6c-2.9,0-5.6-0.5-8.1-1.6c-2.6-1.1-4.8-2.6-6.7-4.5c-1.9-1.9-3.4-4.1-4.5-6.7
		C156.4,74.9,155.8,72.2,155.8,69.3z"/>
	<path class="st0" d="M310.7,205.2c-1.9-0.3-4.1-0.5-6.4-0.6c-2.3-0.1-4.7-0.1-7.2-0.1c-3,0-6,0.1-9.1,0.2c-3.1,0.2-6.1,0.4-9,0.6
		c-2.9,0.2-5.7,0.5-8.3,0.8c-2.6,0.3-4.9,0.6-6.8,0.8c2.7-9,4.7-18.7,6.2-29c1.5-10.3,2.2-21.7,2.2-34.2c0-0.9,0-2.2,0-3.7
		c0-1.6-0.1-3.2-0.2-5c-0.1-1.8-0.3-3.6-0.6-5.5c-0.3-1.8-0.7-3.5-1.2-5c-0.5-1.5-1.2-2.7-2-3.6c-0.8-0.9-1.8-1.4-3-1.4
		c-1.7,0-3.4,0.6-5.1,1.9c-1.7,1.2-3.1,2.9-4.4,5c-1.3,2.1-2.3,4.4-3.1,7.1c-0.8,2.7-1.2,5.5-1.2,8.3c0,5.2,0.1,10.4,0.4,15.7
		c0.2,5.3,0.7,10.6,1.2,15.8c0.6,5.2,1.3,10.4,2.1,15.4c0.9,5,2,9.8,3.3,14.2c-1.1-0.1-2.3-0.2-3.7-0.3c-1.2-0.1-2.7-0.1-4.4-0.2
		c-1.7-0.1-3.6-0.1-5.8-0.1c-4,0-8.7,0.2-14,0.5c-5.3,0.3-11,1-17.2,1.9c0.7-3.5,1.4-7.8,2-12.8c0.6-5,1-10.5,1.4-16.4
		c0.4-5.9,0.7-12.1,0.9-18.5c0.2-6.4,0.3-12.8,0.3-19.1c0-4.7-0.1-9.2-0.2-13.7c-0.1-4.5-0.3-8.7-0.5-12.7c-0.2-4-0.5-7.7-0.9-11
		c-0.4-3.4-0.8-6.3-1.3-8.7c5,0.9,9.7,1.5,14,1.8c4.3,0.3,8.2,0.5,11.7,0.5c2.2,0,4.3,0,6-0.1s3.3-0.2,4.5-0.3
		c1.5-0.2,2.8-0.4,3.9-0.6c-0.4,1.9-0.7,4-1.1,6.2c-0.3,2.2-0.7,4.5-1,7.1c2.1-2.6,4.2-4.9,6.5-6.9c2.3-2,4.6-3.6,7-4.9
		s4.7-2.3,7-2.9c2.3-0.7,4.5-1,6.5-1c4.5,0,8.4,0.9,11.6,2.8c3.3,1.8,6,4.7,8.1,8.6c2.1,3.9,3.8,8.9,4.8,15c1.1,6.1,1.6,13.4,1.6,22
		c0,5.9,0,11.8,0,17.8c0,6,0.2,12,0.4,17.8s0.7,11.3,1.3,16.5C308.7,196.3,309.5,201,310.7,205.2z"/>
	<path class="st0" d="M384.4,89.9c-0.5,2.8-0.9,5.5-1.1,8.2c-0.2,2.7-0.3,5.4-0.3,8.2c0,2.7,0.1,5.4,0.3,8.1
		c0.2,2.7,0.6,5.4,1.1,8.2c-3-1.6-6.4-2.7-10.1-3.5c-3.8-0.7-7.6-1.3-11.5-1.8v8c0,7,0.1,14.2,0.4,21.3c0.2,7.2,0.7,14.2,1.2,20.9
		c0.6,6.8,1.3,13.2,2.2,19.2c0.9,6,2,11.4,3.3,16.1c-1.1-0.1-2.3-0.2-3.7-0.3c-1.2-0.1-2.7-0.1-4.4-0.2c-1.7-0.1-3.6-0.1-5.8-0.1
		c-4,0-8.7,0.2-14,0.5c-5.3,0.3-11,1-17.2,1.9c2.1-12.1,3.6-24.8,4.5-37.9c0.9-13.1,1.4-25.9,1.4-38.4v-11.1
		c-4.2,0.3-8.4,0.8-12.6,1.4c-4.1,0.7-8.1,1.4-11.7,2.4c0.2-0.7,0.5-1.6,0.7-2.7c0.2-1.1,0.3-2.3,0.4-3.5c0.1-1.2,0.2-2.3,0.2-3.5
		c0-1.1,0-2.1,0-2.8c0-3.2-0.1-6.3-0.4-9.4c-0.2-3.1-0.6-6.3-0.9-9.4c3,1.2,6.5,2.3,10.7,3c4.1,0.8,8.3,1.4,12.5,1.7
		c-0.4-5.4-0.8-10.4-1.3-15c-0.5-4.6-1.1-8.8-1.8-12.5c5,0.9,9.7,1.5,14,1.8c4.3,0.3,8.2,0.5,11.7,0.5c2.2,0,4.3,0,6-0.1
		s3.3-0.2,4.5-0.3c1.5-0.1,2.8-0.3,3.9-0.5c-0.7,3-1.3,6.7-1.7,11.2c-0.5,4.5-0.9,9.4-1.4,14.9c4.1-0.4,8-1,11.6-1.8
		C378.7,91.9,381.8,91,384.4,89.9z"/>
	<path class="st0" d="M466.8,116.4c0,4.7-0.7,9.2-2,13.6c-1.3,4.4-3.7,8.3-7.1,11.8c-3.4,3.4-7.9,6.2-13.6,8.2
		c-5.7,2.1-12.9,3.1-21.7,3.1c0.2,3.1,0.9,5.6,1.9,7.7c1,2.1,2.3,3.7,3.7,5c1.4,1.2,3,2.2,4.6,2.8c1.6,0.6,3.1,1.1,4.5,1.3
		c1.4,0.2,3,0.4,4.9,0.4c3.9-0.4,7.3-1.4,10.4-3c1.3-0.6,2.6-1.4,3.8-2.4c1.2-1,2.4-2.1,3.4-3.5c1-1.3,1.9-2.9,2.5-4.6
		c0.7-1.7,1-3.7,1.2-5.9c1.6,4,2.8,7.8,3.4,11.4c0.7,3.5,1,6.8,1,9.9c0,5.6-1,10.8-3,15.5c-2,4.7-4.8,8.8-8.4,12.2
		c-3.5,3.4-7.8,6.1-12.7,8c-4.9,1.9-10.2,2.9-15.9,2.9c-5.6,0-11-1-16.2-2.9c-5.2-1.9-9.8-5-13.8-9.2c-4-4.2-7.2-9.7-9.6-16.4
		c-2.4-6.7-3.6-14.9-3.6-24.5c0-10.4,1.5-19.6,4.5-27.7c3-8,7-14.8,12.1-20.2c5-5.4,10.9-9.6,17.5-12.4c6.6-2.8,13.6-4.3,20.9-4.3
		c3.6,0,7.1,0.4,10.4,1.2c3.3,0.8,6.3,2.1,8.8,4s4.5,4.3,6,7.2C466,108.5,466.8,112.1,466.8,116.4z M422,137.7
		c1.7-0.1,3.8-0.4,6.1-1.1c2.3-0.7,4.5-1.6,6.5-2.8c2.1-1.2,3.8-2.6,5.2-4.4c1.4-1.7,2.1-3.7,2.1-6c0-1.4-0.5-2.6-1.5-3.5
		c-1-0.9-2.3-1.3-3.8-1.3c-2.2,0-4.1,0.6-5.8,1.9c-1.7,1.2-3.2,2.8-4.4,4.7c-1.2,1.9-2.2,3.9-2.9,6.2
		C422.7,133.7,422.2,135.8,422,137.7z"/>
	<path class="st0" d="M529.4,118.6c-1.9,0-3.7,0.5-5.2,1.6c-1.6,1.1-2.9,2.6-4.2,4.6c-1.2,2-2.3,4.3-3.2,7.1
		c-0.9,2.7-1.6,5.8-2.2,9.1c0,5.3,0.1,10.7,0.4,16.1c0.2,5.4,0.7,10.8,1.2,16.1c0.6,5.3,1.3,10.5,2.2,15.5c0.9,5,2,9.8,3.3,14.4
		c-1-0.1-2.1-0.2-3.5-0.3c-1.1-0.1-2.5-0.1-4.1-0.2c-1.6-0.1-3.4-0.1-5.5-0.1c-3.9,0-8.3,0.2-13.4,0.5c-5.1,0.3-10.7,1-16.9,1.9
		c0.7-3.5,1.4-7.8,2-12.8c0.6-5,1-10.5,1.4-16.4c0.4-5.9,0.7-12.1,0.9-18.5c0.2-6.4,0.3-12.8,0.3-19.1c0-4.7-0.1-9.2-0.2-13.7
		c-0.1-4.5-0.3-8.7-0.5-12.7c-0.2-4-0.5-7.7-0.9-11c-0.4-3.4-0.8-6.3-1.3-8.7c5,0.9,9.6,1.5,13.8,1.8c4.1,0.3,7.9,0.5,11.2,0.5
		c2.1,0,4,0,5.6-0.1c1.6-0.1,3-0.2,4.2-0.3c1.3-0.2,2.5-0.4,3.6-0.6c-0.7,3.1-1.3,6.6-1.7,10.4c3.2-3.9,6.8-6.8,10.6-8.7
		c3.8-1.9,7.4-2.8,10.8-2.8c5.6,0,10.3,1,14.2,3c3.9,2,7,4.7,9.3,7.9c2.4,3.3,4.1,7,5.1,11.2c1.1,4.2,1.6,8.4,1.6,12.7
		c0,4.2-0.6,8.3-1.8,12.2c-1.2,4-2.9,7.6-5.1,10.7c-2.2,3.1-5,5.7-8.3,7.6c-3.3,1.9-7,2.9-11.2,2.9c-3.7,0-6.8-0.6-9.4-1.9
		c-2.6-1.2-4.7-2.9-6.4-4.9c-1.7-2-2.9-4.2-3.7-6.6c-0.8-2.4-1.2-4.8-1.2-7.1c0-2.5,0.4-4.9,1.1-7.3c0.7-2.4,1.8-4.5,3.1-6.4
		c0.4,1.4,1,2.4,1.6,3.1c0.7,0.7,1.3,1.2,2,1.5c0.7,0.4,1.6,0.6,2.4,0.7c2.3,0,4-0.5,5.2-1.6c1.2-1.1,1.7-2.3,1.7-3.7
		c0-0.7-0.1-1.5-0.4-2.3c-0.2-0.9-0.7-1.7-1.4-2.4s-1.6-1.4-2.8-1.9C532.9,118.8,531.3,118.6,529.4,118.6z"/>
</g>
<g>
</g>
<g>
</g>
<g>
</g>
<g>
</g>
<g>
</g>
<g>
</g>
</svg>
